{
  "accessors": [
    {
      "bufferView": 2,
      "componentType": 5126,
      "count": 4131,
      "max": [
        2.531357765197754,
        1.6008661985397339,
        1.3121097087860107
      ],
      "min": [
        -3.0036051273345947,
        -1.5,
        -1.0
      ],
      "type": "VEC3"
    },
    {
      "bufferView": 2,
      "byteOffset": 49572,
      "componentType": 5126,
      "count": 4131,
      "max": [
        1.0,
        1.0,
        1.0
      ],
      "min": [
        -1.0,
        -1.0,
        -1.0
      ],
      "type": "VEC3"
    },
    {
      "bufferView": 1,
      "componentType": 5126,
      "count": 4131,
      "max": [
        0.9789758920669556,
        0.9715508222579956
      ],
      "min": [
        0.023693948984146118,
        0.11743196845054626
      ],
      "type": "VEC2"
    },
    {
      "bufferView": 0,
      "componentType": 5125,
      "count": 9642,
      "type": "SCALAR"
    },
    {
      "bufferView": 2,
      "byteOffset": 99144,
      "componentType": 5126,
      "count": 24,
      "max": [
        1.0,
        1.0,
        1.0
      ],
      "min": [
        -1.0,
        -1.0,
        -1.0
      ],
      "type": "VEC3"
    },
    {
      "bufferView": 2,
      "byteOffset": 99432,
      "componentType": 5126,
      "count": 24,
      "max": [
        1.0,
        1.0,
        1.0
      ],
      "min": [
        -1.0,
        -1.0,
        -1.0
      ],
      "type": "VEC3"
    },
    {
      "bufferView": 1,
      "byteOffset": 33048,
      "componentType": 5126,
      "count": 24,
      "max": [
        0.23484978079795837,
        0.7486798167228699
      ],
      "min": [
        0.2221815288066864,
        0.7317888140678406
      ],
      "type": "VEC2"
    },
    {
      "bufferView": 0,
      "byteOffset": 38568,
      "componentType": 5125,
      "count": 36,
      "type": "SCALAR"
    },
    {
      "bufferView": 2,
      "byteOffset": 99720,
      "componentType": 5126,
      "count": 24,
      "max": [
        1.0,
        1.0,
        1.0
      ],
      "min": [
        -1.0,
        -1.0,
        -1.0
      ],
      "type": "VEC3"
    },
    {
      "bufferView": 2,
      "byteOffset": 100008,
      "componentType": 5126,
      "count": 24,
      "max": [
        1.0,
        1.0,
        1.0
      ],
      "min": [
        -1.0,
        -1.0,
        -1.0
      ],
      "type": "VEC3"
    },
    {
      "bufferView": 1,
      "byteOffset": 33240,
      "componentType": 5126,
      "count": 24,
      "max": [
        0.926857054233551,
        0.9908261299133301
      ],
      "min": [
        0.9061976075172424,
        0.9525041580200195
      ],
      "type": "VEC2"
    },
    {
      "bufferView": 0,
      "byteOffset": 38712,
      "componentType": 5125,
      "count": 36,
      "type": "SCALAR"
    },
    {
      "bufferView": 2,
      "byteOffset": 100296,
      "componentType": 5126,
      "count": 24,
      "max": [
        1.0,
        1.0,
        1.0
      ],
      "min": [
        -1.0,
        -1.0,
        -1.0
      ],
      "type": "VEC3"
    },
    {
      "bufferView": 2,
      "byteOffset": 100584,
      "componentType": 5126,
      "count": 24,
      "max": [
        1.0,
        1.0,
        1.0
      ],
      "min": [
        -1.0,
        -1.0,
        -1.0
      ],
      "type": "VEC3"
    },
    {
      "bufferView": 1,
      "byteOffset": 33432,
      "componentType": 5126,
      "count": 24,
      "max": [
        0.9254076480865479,
        0.9851789474487305
      ],
      "min": [
        0.9183422327041626,
        0.9757583737373352
      ],
      "type": "VEC2"
    },
    {
      "bufferView": 0,
      "byteOffset": 38856,
      "componentType": 5125,
      "count": 36,
      "type": "SCALAR"
    },
    {
      "bufferView": 2,
      "byteOffset": 100872,
      "componentType": 5126,
      "count": 24,
      "max": [
        1.0,
        1.0,
        1.0
      ],
      "min": [
        -1.0,
        -1.0,
        -1.0
      ],
      "type": "VEC3"
    },
    {
      "bufferView": 2,
      "byteOffset": 101160,
      "componentType": 5126,
      "count": 24,
      "max": [
        1.0,
        1.0,
        1.0
      ],
      "min": [
        -1.0,
        -1.0,
        -1.0
      ],
      "type": "VEC3"
    },
    {
      "bufferView": 1,
      "byteOffset": 33624,
      "componentType": 5126,
      "count": 24,
      "max": [
        0.918095588684082,
        0.9780336618423462
      ],
      "min": [
        0.9100292921066284,
        0.9672785997390747
      ],
      "type": "VEC2"
    },
    {
      "bufferView": 0,
      "byteOffset": 39000,
      "componentType": 5125,
      "count": 36,
      "type": "SCALAR"
    },
    {
      "bufferView": 2,
      "byteOffset": 101448,
      "componentType": 5126,
      "count": 124,
      "max": [
        0.2719709277153015,
        0.4027923345565796,
        0.25649067759513855
      ],
      "min": [
        -0.2719709277153015,
        -0.4027923345565796,
        -0.21032080054283142
      ],
      "type": "VEC3"
    },
    {
      "bufferView": 2,
      "byteOffset": 102936,
      "componentType": 5126,
      "count": 124,
      "max": [
        1.0,
        1.0,
        1.0
      ],
      "min": [
        -1.0,
        -1.0,
        -1.0
      ],
      "type": "VEC3"
    },
    {
      "bufferView": 1,
      "byteOffset": 33816,
      "componentType": 5126,
      "count": 124,
      "max": [
        0.9203869700431824,
        1.0
      ],
      "min": [
        0.07073107361793518,
        0.0
      ],
      "type": "VEC2"
    },
    {
      "bufferView": 0,
      "byteOffset": 39144,
      "componentType": 5125,
      "count": 204,
      "type": "SCALAR"
    },
    {
      "bufferView": 2,
      "byteOffset": 104424,
      "componentType": 5126,
      "count": 624,
      "max": [
        1.25,
        0.9916914701461792,
        0.25
      ],
      "min": [
        0.2782457172870636,
        -1.1377644538879395,
        -0.25943052768707275
      ],
      "type": "VEC3"
    },
    {
      "bufferView": 2,
      "byteOffset": 111912,
      "componentType": 5126,
      "count": 624,
      "max": [
        0.9639958739280701,
        0.7263256311416626,
        0.9659022092819214
      ],
      "min": [
        -0.9639959931373596,
        -0.7263257503509521,
        -0.9659023284912109
      ],
      "type": "VEC3"
    },
    {
      "bufferView": 1,
      "byteOffset": 34808,
      "componentType": 5126,
      "count": 624,
      "max": [
        0.6458333134651184,
        0.6572193503379822
      ],
      "min": [
        0.3162716031074524,
        2.220446049250313e-16
      ],
      "type": "VEC2"
    },
    {
      "bufferView": 0,
      "byteOffset": 39960,
      "componentType": 5125,
      "count": 936,
      "type": "SCALAR"
    },
    {
      "bufferView": 2,
      "byteOffset": 119400,
      "componentType": 5126,
      "count": 24,
      "max": [
        1.0,
        1.0,
        1.0
      ],
      "min": [
        -1.0,
        -1.0,
        -1.0
      ],
      "type": "VEC3"
    },
    {
      "bufferView": 2,
      "byteOffset": 119688,
      "componentType": 5126,
      "count": 24,
      "max": [
        1.0,
        1.0,
        1.0
      ],
      "min": [
        -1.0,
        -1.0,
        -1.0
      ],
      "type": "VEC3"
    },
    {
      "bufferView": 1,
      "byteOffset": 39800,
      "componentType": 5126,
      "count": 24,
      "max": [
        0.918095588684082,
        0.9780336618423462
      ],
      "min": [
        0.9100292921066284,
        0.9672785997390747
      ],
      "type": "VEC2"
    },
    {
      "bufferView": 0,
      "byteOffset": 43704,
      "componentType": 5125,
      "count": 36,
      "type": "SCALAR"
    },
    {
      "bufferView": 2,
      "byteOffset": 119976,
      "componentType": 5126,
      "count": 624,
      "max": [
        1.25,
        0.9916914701461792,
        0.25
      ],
      "min": [
        0.2782457172870636,
        -1.1377644538879395,
        -0.25943052768707275
      ],
      "type": "VEC3"
    },
    {
      "bufferView": 2,
      "byteOffset": 127464,
      "componentType": 5126,
      "count": 624,
      "max": [
        0.9639958739280701,
        0.7263256311416626,
        0.9659022092819214
      ],
      "min": [
        -0.9639959931373596,
        -0.7263257503509521,
        -0.9659023284912109
      ],
      "type": "VEC3"
    },
    {
      "bufferView": 1,
      "byteOffset": 39992,
      "componentType": 5126,
      "count": 624,
      "max": [
        0.6458333134651184,
        0.6572193503379822
      ],
      "min": [
        0.3162716031074524,
        2.220446049250313e-16
      ],
      "type": "VEC2"
    },
    {
      "bufferView": 0,
      "byteOffset": 43848,
      "componentType": 5125,
      "count": 936,
      "type": "SCALAR"
    },
    {
      "bufferView": 2,
      "byteOffset": 134952,
      "componentType": 5126,
      "count": 624,
      "max": [
        1.25,
        0.9916914701461792,
        0.25
      ],
      "min": [
        0.2782457172870636,
        -1.1377644538879395,
        -0.25943052768707275
      ],
      "type": "VEC3"
    },
    {
      "bufferView": 2,
      "byteOffset": 142440,
      "componentType": 5126,
      "count": 624,
      "max": [
        0.9639958739280701,
        0.7263256311416626,
        0.9659022092819214
      ],
      "min": [
        -0.9639959931373596,
        -0.7263257503509521,
        -0.9659023284912109
      ],
      "type": "VEC3"
    },
    {
      "bufferView": 1,
      "byteOffset": 44984,
      "componentType": 5126,
      "count": 624,
      "max": [
        0.6458333134651184,
        0.6572193503379822
      ],
      "min": [
        0.3162716031074524,
        2.220446049250313e-16
      ],
      "type": "VEC2"
    },
    {
      "bufferView": 0,
      "byteOffset": 47592,
      "componentType": 5125,
      "count": 936,
      "type": "SCALAR"
    },
    {
      "bufferView": 2,
      "byteOffset": 149928,
      "componentType": 5126,
      "count": 112,
      "max": [
        1.1826103925704956,
        3.0010313987731934,
        1.0
      ],
      "min": [
        -1.1826103925704956,
        -1.1826103925704956,
        -1.0493634939193726
      ],
      "type": "VEC3"
    },
    {
      "bufferView": 2,
      "byteOffset": 151272,
      "componentType": 5126,
      "count": 112,
      "max": [
        1.0,
        1.0,
        1.0
      ],
      "min": [
        -1.0,
        -1.0,
        -1.0
      ],
      "type": "VEC3"
    },
    {
      "bufferView": 1,
      "byteOffset": 49976,
      "componentType": 5126,
      "count": 112,
      "max": [
        0.4247456192970276,
        0.46596941351890564
      ],
      "min": [
        0.0749327540397644,
        0.4375603497028351
      ],
      "type": "VEC2"
    },
    {
      "bufferView": 0,
      "byteOffset": 51336,
      "componentType": 5125,
      "count": 180,
      "type": "SCALAR"
    },
    {
      "bufferView": 2,
      "byteOffset": 152616,
      "componentType": 5126,
      "count": 114,
      "max": [
        1.1826103925704956,
        1.1826103925704956,
        1.0
      ],
      "min": [
        -1.1826103925704956,
        -1.1826103925704956,
        -1.0493634939193726
      ],
      "type": "VEC3"
    },
    {
      "bufferView": 2,
      "byteOffset": 153984,
      "componentType": 5126,
      "count": 114,
      "max": [
        1.0,
        1.0,
        1.0
      ],
      "min": [
        -1.0,
        -1.0,
        -1.0
      ],
      "type": "VEC3"
    },
    {
      "bufferView": 1,
      "byteOffset": 50872,
      "componentType": 5126,
      "count": 114,
      "max": [
        0.4217538833618164,
        0.45513448119163513
      ],
      "min": [
        0.06986194849014282,
        0.43822190165519714
      ],
      "type": "VEC2"
    },
    {
      "bufferView": 0,
      "byteOffset": 52056,
      "componentType": 5125,
      "count": 180,
      "type": "SCALAR"
    },
    {
      "bufferView": 2,
      "byteOffset": 155352,
      "componentType": 5126,
      "count": 114,
      "max": [
        1.1826103925704956,
        1.1826103925704956,
        1.0
      ],
      "min": [
        -1.1826103925704956,
        -1.1826103925704956,
        -1.0493634939193726
      ],
      "type": "VEC3"
    },
    {
      "bufferView": 2,
      "byteOffset": 156720,
      "componentType": 5126,
      "count": 114,
      "max": [
        1.0,
        1.0,
        1.0
      ],
      "min": [
        -1.0,
        -1.0,
        -1.0
      ],
      "type": "VEC3"
    },
    {
      "bufferView": 1,
      "byteOffset": 51784,
      "componentType": 5126,
      "count": 114,
      "max": [
        0.4217538833618164,
        0.45513448119163513
      ],
      "min": [
        0.06986194849014282,
        0.43822190165519714
      ],
      "type": "VEC2"
    },
    {
      "bufferView": 0,
      "byteOffset": 52776,
      "componentType": 5125,
      "count": 180,
      "type": "SCALAR"
    },
    {
      "bufferView": 2,
      "byteOffset": 158088,
      "componentType": 5126,
      "count": 112,
      "max": [
        1.1826103925704956,
        3.0010313987731934,
        1.0
      ],
      "min": [
        -1.1826103925704956,
        -1.1826103925704956,
        -1.0493634939193726
      ],
      "type": "VEC3"
    },
    {
      "bufferView": 2,
      "byteOffset": 159432,
      "componentType": 5126,
      "count": 112,
      "max": [
        1.0,
        1.0,
        1.0
      ],
      "min": [
        -1.0,
        -1.0,
        -1.0
      ],
      "type": "VEC3"
    },
    {
      "bufferView": 1,
      "byteOffset": 52696,
      "componentType": 5126,
      "count": 112,
      "max": [
        0.4247456192970276,
        0.46596941351890564
      ],
      "min": [
        0.0749327540397644,
        0.4375603497028351
      ],
      "type": "VEC2"
    },
    {
      "bufferView": 0,
      "byteOffset": 53496,
      "componentType": 5125,
      "count": 180,
      "type": "SCALAR"
    },
    {
      "bufferView": 2,
      "byteOffset": 160776,
      "componentType": 5126,
      "count": 112,
      "max": [
        1.1826103925704956,
        3.0010313987731934,
        1.0
      ],
      "min": [
        -1.1826103925704956,
        -1.1826103925704956,
        -1.0493634939193726
      ],
      "type": "VEC3"
    },
    {
      "bufferView": 2,
      "byteOffset": 162120,
      "componentType": 5126,
      "count": 112,
      "max": [
        1.0,
        1.0,
        1.0
      ],
      "min": [
        -1.0,
        -1.0,
        -1.0
      ],
      "type": "VEC3"
    },
    {
      "bufferView": 1,
      "byteOffset": 53592,
      "componentType": 5126,
      "count": 112,
      "max": [
        0.4247456192970276,
        0.46596941351890564
      ],
      "min": [
        0.0749327540397644,
        0.4375603497028351
      ],
      "type": "VEC2"
    },
    {
      "bufferView": 0,
      "byteOffset": 54216,
      "componentType": 5125,
      "count": 180,
      "type": "SCALAR"
    },
    {
      "bufferView": 2,
      "byteOffset": 163464,
      "componentType": 5126,
      "count": 112,
      "max": [
        1.1826103925704956,
        3.0010313987731934,
        1.0
      ],
      "min": [
        -1.1826103925704956,
        -1.1826103925704956,
        -1.0493634939193726
      ],
      "type": "VEC3"
    },
    {
      "bufferView": 2,
      "byteOffset": 164808,
      "componentType": 5126,
      "count": 112,
      "max": [
        1.0,
        1.0,
        1.0
      ],
      "min": [
        -1.0,
        -1.0,
        -1.0
      ],
      "type": "VEC3"
    },
    {
      "bufferView": 1,
      "byteOffset": 54488,
      "componentType": 5126,
      "count": 112,
      "max": [
        0.4247456192970276,
        0.46596941351890564
      ],
      "min": [
        0.0749327540397644,
        0.4375603497028351
      ],
      "type": "VEC2"
    },
    {
      "bufferView": 0,
      "byteOffset": 54936,
      "componentType": 5125,
      "count": 180,
      "type": "SCALAR"
    },
    {
      "bufferView": 2,
      "byteOffset": 166152,
      "componentType": 5126,
      "count": 112,
      "max": [
        1.1826103925704956,
        3.0010313987731934,
        1.0
      ],
      "min": [
        -1.1826103925704956,
        -1.1826103925704956,
        -1.0493634939193726
      ],
      "type": "VEC3"
    },
    {
      "bufferView": 2,
      "byteOffset": 167496,
      "componentType": 5126,
      "count": 112,
      "max": [
        1.0,
        1.0,
        1.0
      ],
      "min": [
        -1.0,
        -1.0,
        -1.0
      ],
      "type": "VEC3"
    },
    {
      "bufferView": 1,
      "byteOffset": 55384,
      "componentType": 5126,
      "count": 112,
      "max": [
        0.4247456192970276,
        0.46596941351890564
      ],
      "min": [
        0.0749327540397644,
        0.4375603497028351
      ],
      "type": "VEC2"
    },
    {
      "bufferView": 0,
      "byteOffset": 55656,
      "componentType": 5125,
      "count": 180,
      "type": "SCALAR"
    },
    {
      "bufferView": 2,
      "byteOffset": 168840,
      "componentType": 5126,
      "count": 112,
      "max": [
        1.1826103925704956,
        3.0010313987731934,
        1.0
      ],
      "min": [
        -1.1826103925704956,
        -1.1826103925704956,
        -1.0493634939193726
      ],
      "type": "VEC3"
    },
    {
      "bufferView": 2,
      "byteOffset": 170184,
      "componentType": 5126,
      "count": 112,
      "max": [
        1.0,
        1.0,
        1.0
      ],
      "min": [
        -1.0,
        -1.0,
        -1.0
      ],
      "type": "VEC3"
    },
    {
      "bufferView": 1,
      "byteOffset": 56280,
      "componentType": 5126,
      "count": 112,
      "max": [
        0.4247456192970276,
        0.46596941351890564
      ],
      "min": [
        0.0749327540397644,
        0.4375603497028351
      ],
      "type": "VEC2"
    },
    {
      "bufferView": 0,
      "byteOffset": 56376,
      "componentType": 5125,
      "count": 180,
      "type": "SCALAR"
    },
    {
      "bufferView": 2,
      "byteOffset": 171528,
      "componentType": 5126,
      "count": 240,
      "max": [
        0.9510578513145447,
        0.9999999403953552,
        1.0
      ],
      "min": [
        -0.9510578513145447,
        -0.9999999403953552,
        -1.0
      ],
      "type": "VEC3"
    },
    {
      "bufferView": 2,
      "byteOffset": 174408,
      "componentType": 5126,
      "count": 240,
      "max": [
        0.9920774102210999,
        0.9435215592384338,
        0.9435238838195801
      ],
      "min": [
        -0.9920774102210999,
        -0.9435215592384338,
        -0.9435238838195801
      ],
      "type": "VEC3"
    },
    {
      "bufferView": 1,
      "byteOffset": 57176,
      "componentType": 5126,
      "count": 240,
      "max": [
        0.6367881298065186,
        0.6956058144569397
      ],
      "min": [
        0.6191332340240479,
        0.687265932559967
      ],
      "type": "VEC2"
    },
    {
      "bufferView": 0,
      "byteOffset": 57096,
      "componentType": 5125,
      "count": 240,
      "type": "SCALAR"
    },
    {
      "bufferView": 2,
      "byteOffset": 177288,
      "componentType": 5126,
      "count": 240,
      "max": [
        0.9510578513145447,
        0.9999999403953552,
        1.0
      ],
      "min": [
        -0.9510578513145447,
        -0.9999999403953552,
        -1.0
      ],
      "type": "VEC3"
    },
    {
      "bufferView": 2,
      "byteOffset": 180168,
      "componentType": 5126,
      "count": 240,
      "max": [
        0.9920774102210999,
        0.9435215592384338,
        0.9435238838195801
      ],
      "min": [
        -0.9920774102210999,
        -0.9435215592384338,
        -0.9435238838195801
      ],
      "type": "VEC3"
    },
    {
      "bufferView": 1,
      "byteOffset": 59096,
      "componentType": 5126,
      "count": 240,
      "max": [
        0.6367881298065186,
        0.6956058144569397
      ],
      "min": [
        0.6191332340240479,
        0.687265932559967
      ],
      "type": "VEC2"
    },
    {
      "bufferView": 0,
      "byteOffset": 58056,
      "componentType": 5125,
      "count": 240,
      "type": "SCALAR"
    },
    {
      "bufferView": 2,
      "byteOffset": 183048,
      "componentType": 5126,
      "count": 240,
      "max": [
        0.9510578513145447,
        0.9999999403953552,
        1.0
      ],
      "min": [
        -0.9510578513145447,
        -0.9999999403953552,
        -1.0
      ],
      "type": "VEC3"
    },
    {
      "bufferView": 2,
      "byteOffset": 185928,
      "componentType": 5126,
      "count": 240,
      "max": [
        0.9920774102210999,
        0.9435215592384338,
        0.9435238838195801
      ],
      "min": [
        -0.9920774102210999,
        -0.9435215592384338,
        -0.9435238838195801
      ],
      "type": "VEC3"
    },
    {
      "bufferView": 1,
      "byteOffset": 61016,
      "componentType": 5126,
      "count": 240,
      "max": [
        0.6367881298065186,
        0.6956058144569397
      ],
      "min": [
        0.6191332340240479,
        0.687265932559967
      ],
      "type": "VEC2"
    },
    {
      "bufferView": 0,
      "byteOffset": 59016,
      "componentType": 5125,
      "count": 240,
      "type": "SCALAR"
    },
    {
      "bufferView": 2,
      "byteOffset": 188808,
      "componentType": 5126,
      "count": 240,
      "max": [
        0.9510578513145447,
        0.9999999403953552,
        1.0
      ],
      "min": [
        -0.9510578513145447,
        -0.9999999403953552,
        -1.0
      ],
      "type": "VEC3"
    },
    {
      "bufferView": 2,
      "byteOffset": 191688,
      "componentType": 5126,
      "count": 240,
      "max": [
        0.9920774102210999,
        0.9435215592384338,
        0.9435238838195801
      ],
      "min": [
        -0.9920774102210999,
        -0.9435215592384338,
        -0.9435238838195801
      ],
      "type": "VEC3"
    },
    {
      "bufferView": 1,
      "byteOffset": 62936,
      "componentType": 5126,
      "count": 240,
      "max": [
        0.6367881298065186,
        0.6956058144569397
      ],
      "min": [
        0.6191332340240479,
        0.687265932559967
      ],
      "type": "VEC2"
    },
    {
      "bufferView": 0,
      "byteOffset": 59976,
      "componentType": 5125,
      "count": 240,
      "type": "SCALAR"
    },
    {
      "bufferView": 2,
      "byteOffset": 194568,
      "componentType": 5126,
      "count": 240,
      "max": [
        0.9510578513145447,
        0.9999999403953552,
        1.0
      ],
      "min": [
        -0.9510578513145447,
        -0.9999999403953552,
        -1.0
      ],
      "type": "VEC3"
    },
    {
      "bufferView": 2,
      "byteOffset": 197448,
      "componentType": 5126,
      "count": 240,
      "max": [
        0.9920774102210999,
        0.9435215592384338,
        0.9435238838195801
      ],
      "min": [
        -0.9920774102210999,
        -0.9435215592384338,
        -0.9435238838195801
      ],
      "type": "VEC3"
    },
    {
      "bufferView": 1,
      "byteOffset": 64856,
      "componentType": 5126,
      "count": 240,
      "max": [
        0.6367881298065186,
        0.6956058144569397
      ],
      "min": [
        0.6191332340240479,
        0.687265932559967
      ],
      "type": "VEC2"
    },
    {
      "bufferView": 0,
      "byteOffset": 60936,
      "componentType": 5125,
      "count": 240,
      "type": "SCALAR"
    },
    {
      "bufferView": 2,
      "byteOffset": 200328,
      "componentType": 5126,
      "count": 240,
      "max": [
        0.9510578513145447,
        0.9999999403953552,
        1.0
      ],
      "min": [
        -0.9510578513145447,
        -0.9999999403953552,
        -1.0
      ],
      "type": "VEC3"
    },
    {
      "bufferView": 2,
      "byteOffset": 203208,
      "componentType": 5126,
      "count": 240,
      "max": [
        0.9920774102210999,
        0.9435215592384338,
        0.9435238838195801
      ],
      "min": [
        -0.9920774102210999,
        -0.9435215592384338,
        -0.9435238838195801
      ],
      "type": "VEC3"
    },
    {
      "bufferView": 1,
      "byteOffset": 66776,
      "componentType": 5126,
      "count": 240,
      "max": [
        0.6367881298065186,
        0.6956058144569397
      ],
      "min": [
        0.6191332340240479,
        0.687265932559967
      ],
      "type": "VEC2"
    },
    {
      "bufferView": 0,
      "byteOffset": 61896,
      "componentType": 5125,
      "count": 240,
      "type": "SCALAR"
    },
    {
      "bufferView": 2,
      "byteOffset": 206088,
      "componentType": 5126,
      "count": 240,
      "max": [
        0.9510578513145447,
        0.9999999403953552,
        1.0
      ],
      "min": [
        -0.9510578513145447,
        -0.9999999403953552,
        -1.0
      ],
      "type": "VEC3"
    },
    {
      "bufferView": 2,
      "byteOffset": 208968,
      "componentType": 5126,
      "count": 240,
      "max": [
        0.9920774102210999,
        0.9435215592384338,
        0.9435238838195801
      ],
      "min": [
        -0.9920774102210999,
        -0.9435215592384338,
        -0.9435238838195801
      ],
      "type": "VEC3"
    },
    {
      "bufferView": 1,
      "byteOffset": 68696,
      "componentType": 5126,
      "count": 240,
      "max": [
        0.6367881298065186,
        0.6956058144569397
      ],
      "min": [
        0.6191332340240479,
        0.687265932559967
      ],
      "type": "VEC2"
    },
    {
      "bufferView": 0,
      "byteOffset": 62856,
      "componentType": 5125,
      "count": 240,
      "type": "SCALAR"
    },
    {
      "bufferView": 2,
      "byteOffset": 211848,
      "componentType": 5126,
      "count": 240,
      "max": [
        0.9510578513145447,
        0.9999999403953552,
        1.0
      ],
      "min": [
        -0.9510578513145447,
        -0.9999999403953552,
        -1.0
      ],
      "type": "VEC3"
    },
    {
      "bufferView": 2,
      "byteOffset": 214728,
      "componentType": 5126,
      "count": 240,
      "max": [
        0.9920774102210999,
        0.9435215592384338,
        0.9435238838195801
      ],
      "min": [
        -0.9920774102210999,
        -0.9435215592384338,
        -0.9435238838195801
      ],
      "type": "VEC3"
    },
    {
      "bufferView": 1,
      "byteOffset": 70616,
      "componentType": 5126,
      "count": 240,
      "max": [
        0.6367881298065186,
        0.6956058144569397
      ],
      "min": [
        0.6191332340240479,
        0.687265932559967
      ],
      "type": "VEC2"
    },
    {
      "bufferView": 0,
      "byteOffset": 63816,
      "componentType": 5125,
      "count": 240,
      "type": "SCALAR"
    },
    {
      "bufferView": 2,
      "byteOffset": 217608,
      "componentType": 5126,
      "count": 240,
      "max": [
        0.9510578513145447,
        0.9999999403953552,
        1.0
      ],
      "min": [
        -0.9510578513145447,
        -0.9999999403953552,
        -1.0
      ],
      "type": "VEC3"
    },
    {
      "bufferView": 2,
      "byteOffset": 220488,
      "componentType": 5126,
      "count": 240,
      "max": [
        0.9920774102210999,
        0.9435215592384338,
        0.9435238838195801
      ],
      "min": [
        -0.9920774102210999,
        -0.9435215592384338,
        -0.9435238838195801
      ],
      "type": "VEC3"
    },
    {
      "bufferView": 1,
      "byteOffset": 72536,
      "componentType": 5126,
      "count": 240,
      "max": [
        0.6367881298065186,
        0.6956058144569397
      ],
      "min": [
        0.6191332340240479,
        0.687265932559967
      ],
      "type": "VEC2"
    },
    {
      "bufferView": 0,
      "byteOffset": 64776,
      "componentType": 5125,
      "count": 240,
      "type": "SCALAR"
    },
    {
      "bufferView": 2,
      "byteOffset": 223368,
      "componentType": 5126,
      "count": 240,
      "max": [
        0.9510578513145447,
        0.9999999403953552,
        1.0
      ],
      "min": [
        -0.9510578513145447,
        -0.9999999403953552,
        -1.0
      ],
      "type": "VEC3"
    },
    {
      "bufferView": 2,
      "byteOffset": 226248,
      "componentType": 5126,
      "count": 240,
      "max": [
        0.9920774102210999,
        0.9435215592384338,
        0.9435238838195801
      ],
      "min": [
        -0.9920774102210999,
        -0.9435215592384338,
        -0.9435238838195801
      ],
      "type": "VEC3"
    },
    {
      "bufferView": 1,
      "byteOffset": 74456,
      "componentType": 5126,
      "count": 240,
      "max": [
        0.6367881298065186,
        0.6956058144569397
      ],
      "min": [
        0.6191332340240479,
        0.687265932559967
      ],
      "type": "VEC2"
    },
    {
      "bufferView": 0,
      "byteOffset": 65736,
      "componentType": 5125,
      "count": 240,
      "type": "SCALAR"
    },
    {
      "bufferView": 2,
      "byteOffset": 229128,
      "componentType": 5126,
      "count": 240,
      "max": [
        0.9510578513145447,
        0.9999999403953552,
        1.0
      ],
      "min": [
        -0.9510578513145447,
        -0.9999999403953552,
        -1.0
      ],
      "type": "VEC3"
    },
    {
      "bufferView": 2,
      "byteOffset": 232008,
      "componentType": 5126,
      "count": 240,
      "max": [
        0.9920774102210999,
        0.9435215592384338,
        0.9435238838195801
      ],
      "min": [
        -0.9920774102210999,
        -0.9435215592384338,
        -0.9435238838195801
      ],
      "type": "VEC3"
    },
    {
      "bufferView": 1,
      "byteOffset": 76376,
      "componentType": 5126,
      "count": 240,
      "max": [
        0.6367881298065186,
        0.6956058144569397
      ],
      "min": [
        0.6191332340240479,
        0.687265932559967
      ],
      "type": "VEC2"
    },
    {
      "bufferView": 0,
      "byteOffset": 66696,
      "componentType": 5125,
      "count": 240,
      "type": "SCALAR"
    },
    {
      "bufferView": 2,
      "byteOffset": 234888,
      "componentType": 5126,
      "count": 240,
      "max": [
        0.9510578513145447,
        0.9999999403953552,
        1.0
      ],
      "min": [
        -0.9510578513145447,
        -0.9999999403953552,
        -1.0
      ],
      "type": "VEC3"
    },
    {
      "bufferView": 2,
      "byteOffset": 237768,
      "componentType": 5126,
      "count": 240,
      "max": [
        0.9920774102210999,
        0.9435215592384338,
        0.9435238838195801
      ],
      "min": [
        -0.9920774102210999,
        -0.9435215592384338,
        -0.9435238838195801
      ],
      "type": "VEC3"
    },
    {
      "bufferView": 1,
      "byteOffset": 78296,
      "componentType": 5126,
      "count": 240,
      "max": [
        0.6367881298065186,
        0.6956058144569397
      ],
      "min": [
        0.6191332340240479,
        0.687265932559967
      ],
      "type": "VEC2"
    },
    {
      "bufferView": 0,
      "byteOffset": 67656,
      "componentType": 5125,
      "count": 240,
      "type": "SCALAR"
    },
    {
      "bufferView": 2,
      "byteOffset": 240648,
      "componentType": 5126,
      "count": 240,
      "max": [
        0.9510578513145447,
        0.9999999403953552,
        1.0
      ],
      "min": [
        -0.9510578513145447,
        -0.9999999403953552,
        -1.0
      ],
      "type": "VEC3"
    },
    {
      "bufferView": 2,
      "byteOffset": 243528,
      "componentType": 5126,
      "count": 240,
      "max": [
        0.9920774102210999,
        0.9435215592384338,
        0.9435238838195801
      ],
      "min": [
        -0.9920774102210999,
        -0.9435215592384338,
        -0.9435238838195801
      ],
      "type": "VEC3"
    },
    {
      "bufferView": 1,
      "byteOffset": 80216,
      "componentType": 5126,
      "count": 240,
      "max": [
        0.6367881298065186,
        0.6956058144569397
      ],
      "min": [
        0.6191332340240479,
        0.687265932559967
      ],
      "type": "VEC2"
    },
    {
      "bufferView": 0,
      "byteOffset": 68616,
      "componentType": 5125,
      "count": 240,
      "type": "SCALAR"
    },
    {
      "bufferView": 2,
      "byteOffset": 246408,
      "componentType": 5126,
      "count": 240,
      "max": [
        0.9510578513145447,
        0.9999999403953552,
        1.0
      ],
      "min": [
        -0.9510578513145447,
        -0.9999999403953552,
        -1.0
      ],
      "type": "VEC3"
    },
    {
      "bufferView": 2,
      "byteOffset": 249288,
      "componentType": 5126,
      "count": 240,
      "max": [
        0.9920774102210999,
        0.9435215592384338,
        0.9435238838195801
      ],
      "min": [
        -0.9920774102210999,
        -0.9435215592384338,
        -0.9435238838195801
      ],
      "type": "VEC3"
    },
    {
      "bufferView": 1,
      "byteOffset": 82136,
      "componentType": 5126,
      "count": 240,
      "max": [
        0.6367881298065186,
        0.6956058144569397
      ],
      "min": [
        0.6191332340240479,
        0.687265932559967
      ],
      "type": "VEC2"
    },
    {
      "bufferView": 0,
      "byteOffset": 69576,
      "componentType": 5125,
      "count": 240,
      "type": "SCALAR"
    },
    {
      "bufferView": 2,
      "byteOffset": 252168,
      "componentType": 5126,
      "count": 72,
      "max": [
        1.5505948066711426,
        0.39172208309173584,
        0.1090509295463562
      ],
      "min": [
        -0.13505364954471588,
        -0.39300328493118286,
        -0.38978880643844604
      ],
      "type": "VEC3"
    },
    {
      "bufferView": 2,
      "byteOffset": 253032,
      "componentType": 5126,
      "count": 72,
      "max": [
        0.004774472210556269,
        0.9982630610466003,
        0.9641155004501343
      ],
      "min": [
        -0.0019213649211451411,
        0.2654765248298645,
        -0.06087373197078705
      ],
      "type": "VEC3"
    },
    {
      "bufferView": 1,
      "byteOffset": 84056,
      "componentType": 5126,
      "count": 72,
      "max": [
        0.4823247790336609,
        0.9766784310340881
      ],
      "min": [
        0.0664878785610199,
        0.20453552901744843
      ],
      "type": "VEC2"
    },
    {
      "bufferView": 0,
      "byteOffset": 70536,
      "componentType": 5125,
      "count": 108,
      "type": "SCALAR"
    },
    {
      "bufferView": 2,
      "byteOffset": 253896,
      "componentType": 5126,
      "count": 72,
      "max": [
        1.5975087881088257,
        0.39173537492752075,
        0.10905091464519501
      ],
      "min": [
        -0.14543965458869934,
        -0.39301013946533203,
        -0.38978880643844604
      ],
      "type": "VEC3"
    },
    {
      "bufferView": 2,
      "byteOffset": 254760,
      "componentType": 5126,
      "count": 72,
      "max": [
        0.004607939161360264,
        0.9982389807701111,
        0.9641134142875671
      ],
      "min": [
        -0.0018616259330883622,
        0.2654843330383301,
        -0.06084729731082916
      ],
      "type": "VEC3"
    },
    {
      "bufferView": 1,
      "byteOffset": 84632,
      "componentType": 5126,
      "count": 72,
      "max": [
        0.4823247790336609,
        0.9766784310340881
      ],
      "min": [
        0.0664878785610199,
        0.20453552901744843
      ],
      "type": "VEC2"
    },
    {
      "bufferView": 0,
      "byteOffset": 70968,
      "componentType": 5125,
      "count": 108,
      "type": "SCALAR"
    },
    {
      "bufferView": 2,
      "byteOffset": 255624,
      "componentType": 5126,
      "count": 192,
      "max": [
        4.502422332763672,
        0.39173537492752075,
        0.10905091464519501
      ],
      "min": [
        -0.14543965458869934,
        -0.39301013946533203,
        -0.38978880643844604
      ],
      "type": "VEC3"
    },
    {
      "bufferView": 2,
      "byteOffset": 257928,
      "componentType": 5126,
      "count": 192,
      "max": [
        0.0046079447492957115,
        0.9982389807701111,
        0.9641135334968567
      ],
      "min": [
        -0.001861626747995615,
        0.265484094619751,
        -0.06084735691547394
      ],
      "type": "VEC3"
    },
    {
      "bufferView": 1,
      "byteOffset": 85208,
      "componentType": 5126,
      "count": 192,
      "max": [
        0.4823247790336609,
        0.9766784310340881
      ],
      "min": [
        0.0664878785610199,
        0.20453552901744843
      ],
      "type": "VEC2"
    },
    {
      "bufferView": 0,
      "byteOffset": 71400,
      "componentType": 5125,
      "count": 288,
      "type": "SCALAR"
    }
  ],
  "asset": {
    "extras": {
      "author": "RiccardoC. (https://sketchfab.com/MaxterDragon1)",
      "license": "CC-BY-4.0 (http://creativecommons.org/licenses/by/4.0/)",
      "source": "https://sketchfab.com/3d-models/low-poly-store-e451e565c6e74e3395d6c305e8503405",
      "title": "Low Poly Store"
    },
    "generator": "Sketchfab-12.65.0",
    "version": "2.0"
  },
  "bufferViews": [
    {
      "buffer": 0,
      "byteLength": 72552,
      "name": "floatBufferViews",
      "target": 34963
    },
    {
      "buffer": 0,
      "byteLength": 86744,
      "byteOffset": 72552,
      "byteStride": 8,
      "name": "floatBufferViews",
      "target": 34962
    },
    {
      "buffer": 0,
      "byteLength": 260232,
      "byteOffset": 159296,
      "byteStride": 12,
      "name": "floatBufferViews",
      "target": 34962
    }
  ],
  "buffers": [
    {
      "byteLength": 419528,
      "uri": "scene.bin"
    }
  ],
  "images": [
    {
      "uri": "textures/Material.001_baseColor.png"
    }
  ],
  "materials": [
    {
      "doubleSided": true,
      "name": "Material.001",
      "pbrMetallicRoughness": {
        "baseColorTexture": {
          "index": 0
        },
        "metallicFactor": 0.0,
        "roughnessFactor": 0.8211145618000169
      }
    },
    {
      "doubleSided": true,
      "name": "Material.005",
      "pbrMetallicRoughness": {
        "baseColorTexture": {
          "index": 0
        },
        "metallicFactor": 0.0,
        "roughnessFactor": 0.8211145618000169
      }
    },
    {
      "doubleSided": true,
      "name": "Material.006",
      "pbrMetallicRoughness": {
        "baseColorTexture": {
          "index": 0
        },
        "metallicFactor": 0.0,
        "roughnessFactor": 0.8211145618000169
      }
    },
    {
      "doubleSided": true,
      "name": "Material.007",
      "pbrMetallicRoughness": {
        "baseColorTexture": {
          "index": 0
        },
        "metallicFactor": 0.0,
        "roughnessFactor": 0.8211145618000169
      }
    },
    {
      "doubleSided": true,
      "name": "Material.008",
      "pbrMetallicRoughness": {
        "baseColorTexture": {
          "index": 0
        },
        "metallicFactor": 0.0,
        "roughnessFactor": 0.8211145618000169
      }
    },
    {
      "doubleSided": true,
      "name": "Material.009",
      "pbrMetallicRoughness": {
        "baseColorTexture": {
          "index": 0
        },
        "metallicFactor": 0.0,
        "roughnessFactor": 0.8211145618000169
      }
    },
    {
      "doubleSided": true,
      "name": "Material.010",
      "pbrMetallicRoughness": {
        "baseColorTexture": {
          "index": 0
        },
        "metallicFactor": 0.0,
        "roughnessFactor": 0.8211145618000169
      }
    },
    {
      "doubleSided": true,
      "name": "Material.011",
      "pbrMetallicRoughness": {
        "baseColorTexture": {
          "index": 0
        },
        "metallicFactor": 0.0,
        "roughnessFactor": 0.8211145618000169
      }
    },
    {
      "doubleSided": true,
      "name": "Material.012",
      "pbrMetallicRoughness": {
        "baseColorTexture": {
          "index": 0
        },
        "metallicFactor": 0.0,
        "roughnessFactor": 0.8211145618000169
      }
    },
    {
      "doubleSided": true,
      "name": "Material.013",
      "pbrMetallicRoughness": {
        "baseColorTexture": {
          "index": 0
        },
        "metallicFactor": 0.0,
        "roughnessFactor": 0.8211145618000169
      }
    },
    {
      "doubleSided": true,
      "name": "Material.014",
      "pbrMetallicRoughness": {
        "baseColorTexture": {
          "index": 0
        },
        "metallicFactor": 0.0,
        "roughnessFactor": 0.8211145618000169
      }
    },
    {
      "doubleSided": true,
      "name": "Material.015",
      "pbrMetallicRoughness": {
        "baseColorTexture": {
          "index": 0
        },
        "metallicFactor": 0.0,
        "roughnessFactor": 0.8211145618000169
      }
    },
    {
      "doubleSided": true,
      "name": "Material.016",
      "pbrMetallicRoughness": {
        "baseColorTexture": {
          "index": 0
        },
        "metallicFactor": 0.0,
        "roughnessFactor": 0.8211145618000169
      }
    },
    {
      "doubleSided": true,
      "name": "Material.017",
      "pbrMetallicRoughness": {
        "baseColorTexture": {
          "index": 0
        },
        "metallicFactor": 0.0,
        "roughnessFactor": 0.8211145618000169
      }
    },
    {
      "doubleSided": true,
      "name": "Material.018",
      "pbrMetallicRoughness": {
        "baseColorTexture": {
          "index": 0
        },
        "metallicFactor": 0.0,
        "roughnessFactor": 0.8211145618000169
      }
    },
    {
      "doubleSided": true,
      "name": "Material.019",
      "pbrMetallicRoughness": {
        "baseColorTexture": {
          "index": 0
        },
        "metallicFactor": 0.0,
        "roughnessFactor": 0.8211145618000169
      }
    },
    {
      "doubleSided": true,
      "name": "Material.020",
      "pbrMetallicRoughness": {
        "baseColorTexture": {
          "index": 0
        },
        "metallicFactor": 0.0,
        "roughnessFactor": 0.8211145618000169
      }
    },
    {
      "doubleSided": true,
      "name": "Material.021",
      "pbrMetallicRoughness": {
        "baseColorTexture": {
          "index": 0
        },
        "metallicFactor": 0.0,
        "roughnessFactor": 0.8211145618000169
      }
    },
    {
      "doubleSided": true,
      "name": "Material.022",
      "pbrMetallicRoughness": {
        "baseColorTexture": {
          "index": 0
        },
        "metallicFactor": 0.0,
        "roughnessFactor": 0.8211145618000169
      }
    },
    {
      "doubleSided": true,
      "name": "Material.023",
      "pbrMetallicRoughness": {
        "baseColorTexture": {
          "index": 0
        },
        "metallicFactor": 0.0,
        "roughnessFactor": 0.8211145618000169
      }
    },
    {
      "doubleSided": true,
      "name": "Material.024",
      "pbrMetallicRoughness": {
        "baseColorTexture": {
          "index": 0
        },
        "metallicFactor": 0.0,
        "roughnessFactor": 0.8211145618000169
      }
    },
    {
      "doubleSided": true,
      "name": "Material.025",
      "pbrMetallicRoughness": {
        "baseColorTexture": {
          "index": 0
        },
        "metallicFactor": 0.0,
        "roughnessFactor": 0.8211145618000169
      }
    },
    {
      "doubleSided": true,
      "name": "Material.026",
      "pbrMetallicRoughness": {
        "baseColorTexture": {
          "index": 0
        },
        "metallicFactor": 0.0,
        "roughnessFactor": 0.8211145618000169
      }
    },
    {
      "doubleSided": true,
      "name": "Material.027",
      "pbrMetallicRoughness": {
        "baseColorTexture": {
          "index": 0
        },
        "metallicFactor": 0.0,
        "roughnessFactor": 0.8211145618000169
      }
    },
    {
      "doubleSided": true,
      "name": "material_0",
      "pbrMetallicRoughness": {
        "baseColorTexture": {
          "index": 0
        },
        "metallicFactor": 0.0,
        "roughnessFactor": 0.8211145618000169
      }
    },
    {
      "doubleSided": true,
      "name": "Material.000",
      "pbrMetallicRoughness": {
        "baseColorTexture": {
          "index": 0
        },
        "metallicFactor": 0.0,
        "roughnessFactor": 0.8211145618000169
      }
    }
  ],
  "meshes": [
    {
      "name": "Cube_Material.001_0",
      "primitives": [
        {
          "attributes": {
            "NORMAL": 1,
            "POSITION": 0,
            "TEXCOORD_0": 2
          },
          "indices": 3,
          "material": 0,
          "mode": 4
        }
      ]
    },
    {
      "name": "Cube.001_Material.001_0",
      "primitives": [
        {
          "attributes": {
            "NORMAL": 5,
            "POSITION": 4,
            "TEXCOORD_0": 6
          },
          "indices": 7,
          "material": 0,
          "mode": 4
        }
      ]
    },
    {
      "name": "Cube.002_Material.001_0",
      "primitives": [
        {
          "attributes": {
            "NORMAL": 9,
            "POSITION": 8,
            "TEXCOORD_0": 10
          },
          "indices": 11,
          "material": 0,
          "mode": 4
        }
      ]
    },
    {
      "name": "Cube.003_Material.001_0",
      "primitives": [
        {
          "attributes": {
            "NORMAL": 13,
            "POSITION": 12,
            "TEXCOORD_0": 14
          },
          "indices": 15,
          "material": 0,
          "mode": 4
        }
      ]
    },
    {
      "name": "Cube.004_Material.001_0",
      "primitives": [
        {
          "attributes": {
            "NORMAL": 17,
            "POSITION": 16,
            "TEXCOORD_0": 18
          },
          "indices": 19,
          "material": 0,
          "mode": 4
        }
      ]
    },
    {
      "name": "Cube.005_Material.001_0",
      "primitives": [
        {
          "attributes": {
            "NORMAL": 21,
            "POSITION": 20,
            "TEXCOORD_0": 22
          },
          "indices": 23,
          "material": 0,
          "mode": 4
        }
      ]
    },
    {
      "name": "Torus_Material.001_0",
      "primitives": [
        {
          "attributes": {
            "NORMAL": 25,
            "POSITION": 24,
            "TEXCOORD_0": 26
          },
          "indices": 27,
          "material": 0,
          "mode": 4
        }
      ]
    },
    {
      "name": "Cube.006_Material.005_0",
      "primitives": [
        {
          "attributes": {
            "NORMAL": 29,
            "POSITION": 28,
            "TEXCOORD_0": 30
          },
          "indices": 31,
          "material": 1,
          "mode": 4
        }
      ]
    },
    {
      "name": "Torus.003_Material.006_0",
      "primitives": [
        {
          "attributes": {
            "NORMAL": 33,
            "POSITION": 32,
            "TEXCOORD_0": 34
          },
          "indices": 35,
          "material": 2,
          "mode": 4
        }
      ]
    },
    {
      "name": "Torus.001_Material.007_0",
      "primitives": [
        {
          "attributes": {
            "NORMAL": 37,
            "POSITION": 36,
            "TEXCOORD_0": 38
          },
          "indices": 39,
          "material": 3,
          "mode": 4
        }
      ]
    },
    {
      "name": "Cube.007_Material.001_0",
      "primitives": [
        {
          "attributes": {
            "NORMAL": 41,
            "POSITION": 40,
            "TEXCOORD_0": 42
          },
          "indices": 43,
          "material": 0,
          "mode": 4
        }
      ]
    },
    {
      "name": "Cube.008_Material.001_0",
      "primitives": [
        {
          "attributes": {
            "NORMAL": 45,
            "POSITION": 44,
            "TEXCOORD_0": 46
          },
          "indices": 47,
          "material": 0,
          "mode": 4
        }
      ]
    },
    {
      "name": "Cube.009_Material.008_0",
      "primitives": [
        {
          "attributes": {
            "NORMAL": 49,
            "POSITION": 48,
            "TEXCOORD_0": 50
          },
          "indices": 51,
          "material": 4,
          "mode": 4
        }
      ]
    },
    {
      "name": "Cube.010_Material.009_0",
      "primitives": [
        {
          "attributes": {
            "NORMAL": 53,
            "POSITION": 52,
            "TEXCOORD_0": 54
          },
          "indices": 55,
          "material": 5,
          "mode": 4
        }
      ]
    },
    {
      "name": "Cube.011_Material.010_0",
      "primitives": [
        {
          "attributes": {
            "NORMAL": 57,
            "POSITION": 56,
            "TEXCOORD_0": 58
          },
          "indices": 59,
          "material": 6,
          "mode": 4
        }
      ]
    },
    {
      "name": "Cube.012_Material.011_0",
      "primitives": [
        {
          "attributes": {
            "NORMAL": 61,
            "POSITION": 60,
            "TEXCOORD_0": 62
          },
          "indices": 63,
          "material": 7,
          "mode": 4
        }
      ]
    },
    {
      "name": "Cube.013_Material.012_0",
      "primitives": [
        {
          "attributes": {
            "NORMAL": 65,
            "POSITION": 64,
            "TEXCOORD_0": 66
          },
          "indices": 67,
          "material": 8,
          "mode": 4
        }
      ]
    },
    {
      "name": "Cube.014_Material.013_0",
      "primitives": [
        {
          "attributes": {
            "NORMAL": 69,
            "POSITION": 68,
            "TEXCOORD_0": 70
          },
          "indices": 71,
          "material": 9,
          "mode": 4
        }
      ]
    },
    {
      "name": "Icosphere_Material.001_0",
      "primitives": [
        {
          "attributes": {
            "NORMAL": 73,
            "POSITION": 72,
            "TEXCOORD_0": 74
          },
          "indices": 75,
          "material": 0,
          "mode": 4
        }
      ]
    },
    {
      "name": "Icosphere.001_Material.014_0",
      "primitives": [
        {
          "attributes": {
            "NORMAL": 77,
            "POSITION": 76,
            "TEXCOORD_0": 78
          },
          "indices": 79,
          "material": 10,
          "mode": 4
        }
      ]
    },
    {
      "name": "Icosphere.002_Material.015_0",
      "primitives": [
        {
          "attributes": {
            "NORMAL": 81,
            "POSITION": 80,
            "TEXCOORD_0": 82
          },
          "indices": 83,
          "material": 11,
          "mode": 4
        }
      ]
    },
    {
      "name": "Icosphere.003_Material.016_0",
      "primitives": [
        {
          "attributes": {
            "NORMAL": 85,
            "POSITION": 84,
            "TEXCOORD_0": 86
          },
          "indices": 87,
          "material": 12,
          "mode": 4
        }
      ]
    },
    {
      "name": "Icosphere.004_Material.017_0",
      "primitives": [
        {
          "attributes": {
            "NORMAL": 89,
            "POSITION": 88,
            "TEXCOORD_0": 90
          },
          "indices": 91,
          "material": 13,
          "mode": 4
        }
      ]
    },
    {
      "name": "Icosphere.005_Material.018_0",
      "primitives": [
        {
          "attributes": {
            "NORMAL": 93,
            "POSITION": 92,
            "TEXCOORD_0": 94
          },
          "indices": 95,
          "material": 14,
          "mode": 4
        }
      ]
    },
    {
      "name": "Icosphere.006_Material.019_0",
      "primitives": [
        {
          "attributes": {
            "NORMAL": 97,
            "POSITION": 96,
            "TEXCOORD_0": 98
          },
          "indices": 99,
          "material": 15,
          "mode": 4
        }
      ]
    },
    {
      "name": "Icosphere.007_Material.020_0",
      "primitives": [
        {
          "attributes": {
            "NORMAL": 101,
            "POSITION": 100,
            "TEXCOORD_0": 102
          },
          "indices": 103,
          "material": 16,
          "mode": 4
        }
      ]
    },
    {
      "name": "Icosphere.008_Material.021_0",
      "primitives": [
        {
          "attributes": {
            "NORMAL": 105,
            "POSITION": 104,
            "TEXCOORD_0": 106
          },
          "indices": 107,
          "material": 17,
          "mode": 4
        }
      ]
    },
    {
      "name": "Icosphere.009_Material.022_0",
      "primitives": [
        {
          "attributes": {
            "NORMAL": 109,
            "POSITION": 108,
            "TEXCOORD_0": 110
          },
          "indices": 111,
          "material": 18,
          "mode": 4
        }
      ]
    },
    {
      "name": "Icosphere.010_Material.023_0",
      "primitives": [
        {
          "attributes": {
            "NORMAL": 113,
            "POSITION": 112,
            "TEXCOORD_0": 114
          },
          "indices": 115,
          "material": 19,
          "mode": 4
        }
      ]
    },
    {
      "name": "Icosphere.011_Material.024_0",
      "primitives": [
        {
          "attributes": {
            "NORMAL": 117,
            "POSITION": 116,
            "TEXCOORD_0": 118
          },
          "indices": 119,
          "material": 20,
          "mode": 4
        }
      ]
    },
    {
      "name": "Icosphere.012_Material.025_0",
      "primitives": [
        {
          "attributes": {
            "NORMAL": 121,
            "POSITION": 120,
            "TEXCOORD_0": 122
          },
          "indices": 123,
          "material": 21,
          "mode": 4
        }
      ]
    },
    {
      "name": "Icosphere.013_Material.026_0",
      "primitives": [
        {
          "attributes": {
            "NORMAL": 125,
            "POSITION": 124,
            "TEXCOORD_0": 126
          },
          "indices": 127,
          "material": 22,
          "mode": 4
        }
      ]
    },
    {
      "name": "Plane.001_Material.027_0",
      "primitives": [
        {
          "attributes": {
            "NORMAL": 129,
            "POSITION": 128,
            "TEXCOORD_0": 130
          },
          "indices": 131,
          "material": 23,
          "mode": 4
        }
      ]
    },
    {
      "name": "Plane.002_Material.028_0",
      "primitives": [
        {
          "attributes": {
            "NORMAL": 133,
            "POSITION": 132,
            "TEXCOORD_0": 134
          },
          "indices": 135,
          "material": 24,
          "mode": 4
        }
      ]
    },
    {
      "name": "Plane.000_Material.000_0",
      "primitives": [
        {
          "attributes": {
            "NORMAL": 137,
            "POSITION": 136,
            "TEXCOORD_0": 138
          },
          "indices": 139,
          "material": 25,
          "mode": 4
        }
      ]
    }
  ],
  "nodes": [
    {
      "children": [
        1
      ],
      "matrix": [
        1.0,
        0.0,
        0.0,
        0.0,
        0.0,
        2.220446049250313e-16,
        -1.0,
        0.0,
        0.0,
        1.0,
        2.220446049250313e-16,
        0.0,
        0.0,
        0.0,
        0.0,
        1.0
      ],
      "name": "Sketchfab_model"
    },
    {
      "children": [
        2
      ],
      "matrix": [
        1.0,
        0.0,
        0.0,
        0.0,
        0.0,
        0.0,
        1.0,
        0.0,
        0.0,
        -1.0,
        0.0,
        0.0,
        0.0,
        0.0,
        0.0,
        1.0
      ],
      "name": "969686a9465e459e81875fc242d3dd04.fbx"
    },
    {
      "children": [
        3,
        5,
        8,
        10,
        12,
        14,
        16,
        18,
        20,
        22,
        24,
        26,
        28,
        30,
        32,
        34,
        36,
        38,
        40,
        42,
        44,
        46,
        48,
        50,
        52,
        54,
        56,
        58,
        60,
        62,
        64,
        66,
        68,
        70,
        72,
        74,
        76
      ],
      "name": "RootNode"
    },
    {
      "children": [
        4
      ],
      "matrix": [
        86.64713287353516,
        0.0,
        0.0,
        0.0,
        0.0,
        -1.629206793918314e-05,
        -99.99999999999868,
        0.0,
        0.0,
        99.99999999999868,
        -1.629206793918314e-05,
        0.0,
        0.0,
        0.0,
        0.0,
        1.0
      ],
      "name": "Cube"
    },
    {
      "mesh": 0,
      "name": "Cube_Material.001_0"
    },
    {
      "children": [
        6
      ],
      "matrix": [
        -29.08647719990347,
        -5.518906457566863,
        -95.51711910171437,
        0.0,
        56.63930913109449,
        79.46723428563203,
        -21.83912397841966,
        0.0,
        77.11008775993375,
        -60.45246356562044,
        -19.98834696773717,
        0.0,
        405.26971435546875,
        590.8067016601563,
        -101.6473159790039,
        1.0
      ],
      "name": "Light"
    },
    {
      "children": [
        7
      ],
      "matrix": [
        1.0,
        0.0,
        0.0,
        0.0,
        0.0,
        2.220446049250313e-16,
        1.0,
        0.0,
        0.0,
        -1.0,
        2.220446049250313e-16,
        0.0,
        0.0,
        0.0,
        0.0,
        1.0
      ],
      "name": "Object_6"
    },
    {
      "name": "Object_7"
    },
    {
      "children": [
        9
      ],
      "matrix": [
        -65.15583280329096,
        -44.52713576570858,
        -61.41703047373549,
        0.0,
        -32.40134137821245,
        89.53957451233616,
        -30.542088974418615,
        0.0,
        68.59205472129975,
        -1.0718647115348782e-05,
        -72.7676336239627,
        0.0,
        735.88916015625,
        495.8309326171875,
        692.5791015625,
        1.0
      ],
      "name": "Camera"
    },
    {
      "name": "Object_9"
    },
    {
      "children": [
        11
      ],
      "matrix": [
        -228.50816345214753,
        -1.9976818857022692e-05,
        0.0,
        0.0,
        -7.430746056275529e-14,
        8.499782416040119e-07,
        -5.217129230499197,
        0.0,
        2.4899996564584097e-07,
        -2.8482275009154785,
        -4.6403516077652294e-07,
        0.0,
        -19.722736358642578,
        94.74393463134766,
        -148.0313720703125,
        1.0
      ],
      "name": "Cube.001"
    },
    {
      "mesh": 1,
      "name": "Cube.001_Material.001_0"
    },
    {
      "children": [
        13
      ],
      "matrix": [
        8.134286880493164,
        0.0,
        0.0,
        0.0,
        -0.0,
        -1.1591523963352365e-06,
        -7.114826679229642,
        0.0,
        0.0,
        11.788425445556484,
        -1.920578282550041e-06,
        0.0,
        -56.48334503173828,
        -25.652963638305664,
        -155.8693389892578,
        1.0
      ],
      "name": "Cube.002"
    },
    {
      "mesh": 2,
      "name": "Cube.002_Material.001_0"
    },
    {
      "children": [
        15
      ],
      "matrix": [
        8.134286880493164,
        0.0,
        0.0,
        0.0,
        -0.0,
        -1.1591523963352365e-06,
        -7.114826679229642,
        0.0,
        0.0,
        11.788425445556484,
        -1.920578282550041e-06,
        0.0,
        -85.76611328125,
        -25.60952377319336,
        -155.8693389892578,
        1.0
      ],
      "name": "Cube.003"
    },
    {
      "mesh": 3,
      "name": "Cube.003_Material.001_0"
    },
    {
      "children": [
        17
      ],
      "matrix": [
        4.213135719299316,
        0.0,
        0.0,
        0.0,
        0.0,
        -1.218025984291839e-05,
        -74.76190185546776,
        0.0,
        0.0,
        5.316964626312186,
        -8.662434892211278e-07,
        0.0,
        219.98452758789063,
        -59.455406188964844,
        -8.56972599029541,
        1.0
      ],
      "name": "Cube.004"
    },
    {
      "mesh": 4,
      "name": "Cube.004_Material.001_0"
    },
    {
      "children": [
        19
      ],
      "matrix": [
        100.0,
        0.0,
        0.0,
        0.0,
        -0.0,
        -1.629206793918314e-05,
        -99.99999999999868,
        0.0,
        0.0,
        99.99999999999868,
        -1.629206793918314e-05,
        0.0,
        -133.801025390625,
        120.22570037841797,
        55.020912170410156,
        1.0
      ],
      "name": "Cube.005"
    },
    {
      "mesh": 5,
      "name": "Cube.005_Material.001_0"
    },
    {
      "children": [
        21
      ],
      "matrix": [
        -0.36596285193755873,
        11.826476847864622,
        -14.067827433940538,
        0.0,
        -0.1522974323032068,
        14.068180108878058,
        11.830735224286508,
        0.0,
        18.377868721421443,
        0.35208641999231166,
        -0.18209459615338064,
        0.0,
        -121.22395324707031,
        110.17515563964844,
        13.411823272705078,
        1.0
      ],
      "name": "Torus"
    },
    {
      "mesh": 6,
      "name": "Torus_Material.001_0"
    },
    {
      "children": [
        23
      ],
      "matrix": [
        4.213135719299316,
        0.0,
        0.0,
        0.0,
        -0.0,
        -1.218025984291839e-05,
        -74.76190185546776,
        0.0,
        0.0,
        5.316964626312186,
        -8.662434892211278e-07,
        0.0,
        -260.22747802734375,
        -59.455406188964844,
        -8.56972599029541,
        1.0
      ],
      "name": "Cube.006"
    },
    {
      "mesh": 7,
      "name": "Cube.006_Material.005_0"
    },
    {
      "children": [
        25
      ],
      "matrix": [
        -0.36596285193755873,
        11.826476847864622,
        -14.067827433940538,
        0.0,
        -0.1522974323032068,
        14.068180108878058,
        11.830735224286508,
        0.0,
        18.377868721421443,
        0.35208641999231166,
        -0.18209459615338064,
        0.0,
        -133.0110321044922,
        110.17515563964844,
        13.411823272705078,
        1.0
      ],
      "name": "Torus.003"
    },
    {
      "mesh": 8,
      "name": "Torus.003_Material.006_0"
    },
    {
      "children": [
        27
      ],
      "matrix": [
        -0.36596285193755873,
        11.826476847864622,
        -14.067827433940538,
        0.0,
        -0.1522974323032068,
        14.068180108878058,
        11.830735224286508,
        0.0,
        18.377868721421443,
        0.35208641999231166,
        -0.18209459615338064,
        0.0,
        -145.3041229248047,
        110.17515563964844,
        13.411823272705078,
        1.0
      ],
      "name": "Torus.001"
    },
    {
      "mesh": 9,
      "name": "Torus.001_Material.007_0"
    },
    {
      "children": [
        29
      ],
      "matrix": [
        -23.71983528137207,
        -0.0,
        -0.0,
        -0.0,
        -0.0,
        3.864451679103471e-06,
        23.719835281371758,
        -0.0,
        -0.0,
        -18.353872299194094,
        2.990225344455656e-06,
        -0.0,
        313.01470947265625,
        -76.3841323852539,
        -126.41842651367188,
        1.0
      ],
      "name": "Cube.007"
    },
    {
      "mesh": 10,
      "name": "Cube.007_Material.001_0"
    },
    {
      "children": [
        31
      ],
      "matrix": [
        -23.71983528137207,
        -0.0,
        -0.0,
        -0.0,
        -0.0,
        3.864451679103471e-06,
        23.719835281371758,
        -0.0,
        -0.0,
        -18.353872299194094,
        2.990225344455656e-06,
        -0.0,
        64.73651885986328,
        -76.3841323852539,
        -202.3970184326172,
        1.0
      ],
      "name": "Cube.008"
    },
    {
      "mesh": 11,
      "name": "Cube.008_Material.001_0"
    },
    {
      "children": [
        33
      ],
      "matrix": [
        -23.71983528137207,
        -0.0,
        -0.0,
        -0.0,
        0.0,
        3.864451679103471e-06,
        23.719835281371758,
        -0.0,
        -0.0,
        -18.353872299194094,
        2.990225344455656e-06,
        -0.0,
        -182.19345092773438,
        -76.3841323852539,
        -204.03433227539063,
        1.0
      ],
      "name": "Cube.009"
    },
    {
      "mesh": 12,
      "name": "Cube.009_Material.008_0"
    },
    {
      "children": [
        35
      ],
      "matrix": [
        -23.71983528137207,
        -0.0,
        -0.0,
        -0.0,
        -0.0,
        3.864451679103471e-06,
        23.719835281371758,
        -0.0,
        -0.0,
        -18.353872299194094,
        2.990225344455656e-06,
        -0.0,
        313.01470947265625,
        -76.3841323852539,
        -17.999996185302734,
        1.0
      ],
      "name": "Cube.010"
    },
    {
      "mesh": 13,
      "name": "Cube.010_Material.009_0"
    },
    {
      "children": [
        37
      ],
      "matrix": [
        -23.71983528137207,
        -0.0,
        -0.0,
        -0.0,
        -0.0,
        3.864451679103471e-06,
        23.719835281371758,
        -0.0,
        -0.0,
        -18.353872299194094,
        2.990225344455656e-06,
        -0.0,
        313.01470947265625,
        -76.3841323852539,
        88.0457534790039,
        1.0
      ],
      "name": "Cube.011"
    },
    {
      "mesh": 14,
      "name": "Cube.011_Material.010_0"
    },
    {
      "children": [
        39
      ],
      "matrix": [
        -23.71983528137207,
        -0.0,
        -0.0,
        -0.0,
        0.0,
        3.864451679103471e-06,
        23.719835281371758,
        -0.0,
        -0.0,
        -18.353872299194094,
        2.990225344455656e-06,
        -0.0,
        -349.4363708496094,
        -76.3841323852539,
        -126.41842651367188,
        1.0
      ],
      "name": "Cube.012"
    },
    {
      "mesh": 15,
      "name": "Cube.012_Material.011_0"
    },
    {
      "children": [
        41
      ],
      "matrix": [
        -23.71983528137207,
        -0.0,
        -0.0,
        -0.0,
        0.0,
        3.864451679103471e-06,
        23.719835281371758,
        -0.0,
        -0.0,
        -18.353872299194094,
        2.990225344455656e-06,
        -0.0,
        -349.4363708496094,
        -76.3841323852539,
        -17.807361602783203,
        1.0
      ],
      "name": "Cube.013"
    },
    {
      "mesh": 16,
      "name": "Cube.013_Material.012_0"
    },
    {
      "children": [
        43
      ],
      "matrix": [
        -23.71983528137207,
        -0.0,
        -0.0,
        -0.0,
        0.0,
        3.864451679103471e-06,
        23.719835281371758,
        -0.0,
        -0.0,
        -18.353872299194094,
        2.990225344455656e-06,
        -0.0,
        -349.4363708496094,
        -76.3841323852539,
        88.78401184082031,
        1.0
      ],
      "name": "Cube.014"
    },
    {
      "mesh": 17,
      "name": "Cube.014_Material.013_0"
    },
    {
      "children": [
        45
      ],
      "matrix": [
        23.7100830078125,
        0.0,
        0.0,
        0.0,
        0.0,
        -3.86286283206953e-06,
        -23.710083007812187,
        0.0,
        0.0,
        23.710083007812187,
        -3.86286283206953e-06,
        0.0,
        313.9952087402344,
        -51.43569564819336,
        -126.1961441040039,
        1.0
      ],
      "name": "Icosphere"
    },
    {
      "mesh": 18,
      "name": "Icosphere_Material.001_0"
    },
    {
      "children": [
        47
      ],
      "matrix": [
        23.7100830078125,
        0.0,
        0.0,
        0.0,
        0.0,
        -3.86286283206953e-06,
        -23.710083007812187,
        0.0,
        0.0,
        23.710083007812187,
        -3.86286283206953e-06,
        0.0,
        313.9952087402344,
        -51.43569564819336,
        -84.84176635742188,
        1.0
      ],
      "name": "Icosphere.001"
    },
    {
      "mesh": 19,
      "name": "Icosphere.001_Material.014_0"
    },
    {
      "children": [
        49
      ],
      "matrix": [
        23.7100830078125,
        0.0,
        0.0,
        0.0,
        0.0,
        -3.86286283206953e-06,
        -23.710083007812187,
        0.0,
        0.0,
        23.710083007812187,
        -3.86286283206953e-06,
        0.0,
        313.9952087402344,
        -51.43569564819336,
        -16.348756790161133,
        1.0
      ],
      "name": "Icosphere.002"
    },
    {
      "mesh": 20,
      "name": "Icosphere.002_Material.015_0"
    },
    {
      "children": [
        51
      ],
      "matrix": [
        23.7100830078125,
        0.0,
        0.0,
        0.0,
        0.0,
        -3.86286283206953e-06,
        -23.710083007812187,
        0.0,
        0.0,
        23.710083007812187,
        -3.86286283206953e-06,
        0.0,
        313.9952087402344,
        -51.43569564819336,
        25.816558837890625,
        1.0
      ],
      "name": "Icosphere.003"
    },
    {
      "mesh": 21,
      "name": "Icosphere.003_Material.016_0"
    },
    {
      "children": [
        53
      ],
      "matrix": [
        23.7100830078125,
        0.0,
        0.0,
        0.0,
        0.0,
        -3.86286283206953e-06,
        -23.710083007812187,
        0.0,
        0.0,
        23.710083007812187,
        -3.86286283206953e-06,
        0.0,
        313.9952087402344,
        -51.43569564819336,
        89.44189453125,
        1.0
      ],
      "name": "Icosphere.004"
    },
    {
      "mesh": 22,
      "name": "Icosphere.004_Material.017_0"
    },
    {
      "children": [
        55
      ],
      "matrix": [
        23.7100830078125,
        0.0,
        0.0,
        0.0,
        0.0,
        -3.86286283206953e-06,
        -23.710083007812187,
        0.0,
        0.0,
        23.710083007812187,
        -3.86286283206953e-06,
        0.0,
        313.9952087402344,
        -51.43569564819336,
        131.8732452392578,
        1.0
      ],
      "name": "Icosphere.005"
    },
    {
      "mesh": 23,
      "name": "Icosphere.005_Material.018_0"
    },
    {
      "children": [
        57
      ],
      "matrix": [
        23.7100830078125,
        0.0,
        0.0,
        0.0,
        0.0,
        -3.86286283206953e-06,
        -23.710083007812187,
        0.0,
        0.0,
        23.710083007812187,
        -3.86286283206953e-06,
        0.0,
        63.67660903930664,
        -51.43569564819336,
        -203.41775512695313,
        1.0
      ],
      "name": "Icosphere.006"
    },
    {
      "mesh": 24,
      "name": "Icosphere.006_Material.019_0"
    },
    {
      "children": [
        59
      ],
      "matrix": [
        23.7100830078125,
        0.0,
        0.0,
        0.0,
        -0.0,
        -3.86286283206953e-06,
        -23.710083007812187,
        0.0,
        0.0,
        23.710083007812187,
        -3.86286283206953e-06,
        0.0,
        -182.08119201660156,
        -51.43569564819336,
        -203.41775512695313,
        1.0
      ],
      "name": "Icosphere.007"
    },
    {
      "mesh": 25,
      "name": "Icosphere.007_Material.020_0"
    },
    {
      "children": [
        61
      ],
      "matrix": [
        23.7100830078125,
        0.0,
        0.0,
        0.0,
        -0.0,
        -3.86286283206953e-06,
        -23.710083007812187,
        0.0,
        0.0,
        23.710083007812187,
        -3.86286283206953e-06,
        0.0,
        -349.9031982421875,
        -51.43569564819336,
        -126.57886505126953,
        1.0
      ],
      "name": "Icosphere.008"
    },
    {
      "mesh": 26,
      "name": "Icosphere.008_Material.021_0"
    },
    {
      "children": [
        63
      ],
      "matrix": [
        23.7100830078125,
        0.0,
        0.0,
        0.0,
        -0.0,
        -3.86286283206953e-06,
        -23.710083007812187,
        0.0,
        0.0,
        23.710083007812187,
        -3.86286283206953e-06,
        0.0,
        -349.9031982421875,
        -51.43569564819336,
        -84.34945678710938,
        1.0
      ],
      "name": "Icosphere.009"
    },
    {
      "mesh": 27,
      "name": "Icosphere.009_Material.022_0"
    },
    {
      "children": [
        65
      ],
      "matrix": [
        23.7100830078125,
        0.0,
        0.0,
        0.0,
        -0.0,
        -3.86286283206953e-06,
        -23.710083007812187,
        0.0,
        0.0,
        23.710083007812187,
        -3.86286283206953e-06,
        0.0,
        -349.9031982421875,
        -51.43569564819336,
        -17.925643920898438,
        1.0
      ],
      "name": "Icosphere.010"
    },
    {
      "mesh": 28,
      "name": "Icosphere.010_Material.023_0"
    },
    {
      "children": [
        67
      ],
      "matrix": [
        23.7100830078125,
        0.0,
        0.0,
        0.0,
        -0.0,
        -3.86286283206953e-06,
        -23.710083007812187,
        0.0,
        0.0,
        23.710083007812187,
        -3.86286283206953e-06,
        0.0,
        -349.9031982421875,
        -51.43569564819336,
        24.572439193725586,
        1.0
      ],
      "name": "Icosphere.011"
    },
    {
      "mesh": 29,
      "name": "Icosphere.011_Material.024_0"
    },
    {
      "children": [
        69
      ],
      "matrix": [
        23.7100830078125,
        0.0,
        0.0,
        0.0,
        -0.0,
        -3.86286283206953e-06,
        -23.710083007812187,
        0.0,
        0.0,
        23.710083007812187,
        -3.86286283206953e-06,
        0.0,
        -349.9031982421875,
        -51.43569564819336,
        90.81759643554688,
        1.0
      ],
      "name": "Icosphere.012"
    },
    {
      "mesh": 30,
      "name": "Icosphere.012_Material.025_0"
    },
    {
      "children": [
        71
      ],
      "matrix": [
        23.7100830078125,
        0.0,
        0.0,
        0.0,
        -0.0,
        -3.86286283206953e-06,
        -23.710083007812187,
        0.0,
        0.0,
        23.710083007812187,
        -3.86286283206953e-06,
        0.0,
        -349.9031982421875,
        -51.43569564819336,
        132.4577178955078,
        1.0
      ],
      "name": "Icosphere.013"
    },
    {
      "mesh": 31,
      "name": "Icosphere.013_Material.026_0"
    },
    {
      "children": [
        73
      ],
      "matrix": [
        0.17450601926560783,
        2.220446049250313e-14,
        99.99984773813028,
        0.0,
        99.99984755450026,
        -0.0060602030445000565,
        -0.1745060189451697,
        0.0,
        0.006060193817108983,
        99.9999998163697,
        -1.057541911819726e-05,
        0.0,
        254.9764404296875,
        81.740478515625,
        -82.84967041015625,
        1.0
      ],
      "name": "Plane.001"
    },
    {
      "mesh": 32,
      "name": "Plane.001_Material.027_0"
    },
    {
      "children": [
        75
      ],
      "matrix": [
        1.9470718848335622e-05,
        0.0,
        -99.99999999999811,
        0.0,
        -99.99999999999679,
        -1.6292067961387602e-05,
        -1.9470718859437852e-05,
        0.0,
        -1.6292067955836487e-05,
        99.99999999999869,
        -3.197442310920451e-12,
        0.0,
        -298.0917663574219,
        81.740478515625,
        62.701438903808594,
        1.0
      ],
      "name": "Plane.002"
    },
    {
      "mesh": 33,
      "name": "Plane.002_Material.028_0"
    },
    {
      "children": [
        77
      ],
      "matrix": [
        98.5213851928711,
        0.0,
        0.0,
        0.0,
        -0.0,
        -1.6051171010246876e-05,
        -98.52138519286979,
        0.0,
        0.0,
        98.52138519286979,
        -1.6051171010246876e-05,
        0.0,
        -235.365966796875,
        81.740478515625,
        -190.31146240234375,
        1.0
      ],
      "name": "Plane.000"
    },
    {
      "mesh": 34,
      "name": "Plane.000_Material.000_0"
    }
  ],
  "samplers": [
    {
      "magFilter": 9729,
      "minFilter": 9987,
      "wrapS": 10497,
      "wrapT": 10497
    }
  ],
  "scene": 0,
  "scenes": [
    {
      "name": "Sketchfab_Scene",
      "nodes": [
        0
      ]
    }
  ],
  "textures": [
    {
      "sampler": 0,
      "source": 0
    }
  ]
}
