{
	"asset":{
		"generator":"Khronos glTF Blender I/O v5.1.19",
		"version":"2.0"
	},
	"scene":0,
	"scenes":[
		{
			"name":"Scene",
			"nodes":[
				28
			]
		}
	],
	"nodes":[
		{
			"mesh":0,
			"name":"pCube1_lambert10_0"
		},
		{
			"mesh":1,
			"name":"pCube1_lambert11_0",
			"rotation":[
				0,
				0.6531684994697571,
				0,
				0.7572125792503357
			],
			"translation":[
				-0.17800931632518768,
				0,
				0.37460529804229736
			]
		},
		{
			"mesh":2,
			"name":"pCube1_lambert12_0",
			"rotation":[
				0,
				0.6502982974052429,
				0,
				0.7596789598464966
			],
			"translation":[
				-0.18619844317436218,
				0,
				0.3762447237968445
			]
		},
		{
			"mesh":3,
			"name":"pCube1_lambert13_0"
		},
		{
			"mesh":4,
			"name":"pCube1_lambert1_0"
		},
		{
			"mesh":5,
			"name":"pCube1_lambert6_0"
		},
		{
			"mesh":6,
			"name":"pCube1_lambert7_0"
		},
		{
			"mesh":7,
			"name":"pCube1_lambert8_0"
		},
		{
			"mesh":8,
			"name":"pCube1_lambert9_0"
		},
		{
			"children":[
				0,
				1,
				2,
				3,
				4,
				5,
				6,
				7,
				8
			],
			"name":"pCube1",
			"scale":[
				16.428709030151367,
				6.906778335571289,
				12.850025177001953
			],
			"translation":[
				0,
				3.965965986251831,
				0
			]
		},
		{
			"mesh":9,
			"name":"pCube3_lambert3_0"
		},
		{
			"mesh":10,
			"name":"pCube3_lambert4_0"
		},
		{
			"mesh":11,
			"name":"pCube3_lambert5_0"
		},
		{
			"children":[
				10,
				11,
				12
			],
			"name":"pCube3",
			"scale":[
				4.717803478240967,
				1.130429744720459,
				1.130429744720459
			],
			"translation":[
				-4.645171642303467,
				1.1963255405426025,
				7.033105373382568
			]
		},
		{
			"mesh":12,
			"name":"pCube5_lambert1_0"
		},
		{
			"mesh":13,
			"name":"pCube5_lambert6_0"
		},
		{
			"mesh":14,
			"name":"pCube5_lambert8_0"
		},
		{
			"children":[
				14,
				15,
				16
			],
			"name":"pCube5",
			"translation":[
				0,
				0.04560920596122742,
				0
			]
		},
		{
			"mesh":15,
			"name":"pPlatonic1_lambert2_0"
		},
		{
			"children":[
				18
			],
			"name":"pPlatonic1",
			"scale":[
				0.6219712495803833,
				0.5266769528388977,
				0.7529921531677246
			],
			"translation":[
				-2.5552151203155518,
				-0.1351739466190338,
				7.005301475524902
			]
		},
		{
			"mesh":16,
			"name":"pPlatonic2_lambert2_0"
		},
		{
			"children":[
				20
			],
			"name":"pPlatonic2",
			"rotation":[
				-0.10976306349039078,
				-0.43629100918769836,
				0.2178945541381836,
				0.866097092628479
			],
			"scale":[
				0.6219712495803833,
				0.5266768932342529,
				0.7529921531677246
			],
			"translation":[
				-3.191713333129883,
				-0.04771915078163147,
				7.876891136169434
			]
		},
		{
			"mesh":17,
			"name":"pPlatonic3_lambert2_0"
		},
		{
			"children":[
				22
			],
			"name":"pPlatonic3",
			"rotation":[
				-0.10976304113864899,
				-0.43629100918769836,
				0.2178945541381836,
				0.866097092628479
			],
			"scale":[
				0.6589335799217224,
				0.5579761862754822,
				0.7977407574653625
			],
			"translation":[
				-5.969264030456543,
				-0.22871896624565125,
				7.876891136169434
			]
		},
		{
			"mesh":18,
			"name":"pPlatonic4_lambert2_0"
		},
		{
			"children":[
				24
			],
			"name":"pPlatonic4",
			"rotation":[
				0.43015724420547485,
				0.4210132956504822,
				-0.3052084445953369,
				0.7379433512687683
			],
			"scale":[
				0.6219712495803833,
				0.5266769528388977,
				0.7529920935630798
			],
			"translation":[
				-6.78699254989624,
				1.0131803750991821,
				6.187526702880859
			]
		},
		{
			"children":[
				9,
				13,
				17,
				19,
				21,
				23,
				25
			],
			"name":"RootNode"
		},
		{
			"children":[
				26
			],
			"name":"5cd1032bb90c4316ac411216a1911ed1.fbx",
			"rotation":[
				0.70710688829422,
				0,
				0,
				0.7071066498756409
			],
			"scale":[
				0.009999997913837433,
				0.010000000707805157,
				0.010000000707805157
			]
		},
		{
			"children":[
				27
			],
			"name":"Sketchfab_model",
			"rotation":[
				-0.7071069478988647,
				0,
				0,
				0.7071066498756409
			],
			"scale":[
				61.993900299072266,
				62.756919860839844,
				62.756919860839844
			],
			"translation":[
				3.0240297317504883,
				-0.2815694808959961,
				-1.4845554828643799
			]
		}
	],
	"materials":[
		{
			"doubleSided":true,
			"name":"lambert10",
			"pbrMetallicRoughness":{
				"baseColorFactor":[
					0,
					0.08536670356988907,
					0.5,
					1
				],
				"metallicFactor":0,
				"roughnessFactor":0.6000000238418579
			}
		},
		{
			"doubleSided":true,
			"name":"lambert11",
			"pbrMetallicRoughness":{
				"baseColorFactor":[
					0.5040000081062317,
					0.04363799840211868,
					0,
					1
				],
				"metallicFactor":0,
				"roughnessFactor":0.6000000238418579
			}
		},
		{
			"doubleSided":true,
			"name":"lambert12",
			"pbrMetallicRoughness":{
				"baseColorFactor":[
					0.8258060216903687,
					0.8258060216903687,
					0.8258060216903687,
					1
				],
				"metallicFactor":0,
				"roughnessFactor":0.6000000238418579
			}
		},
		{
			"doubleSided":true,
			"name":"lambert13",
			"pbrMetallicRoughness":{
				"baseColorFactor":[
					0.021145999431610107,
					0.026550600305199623,
					0.09700000286102295,
					1
				],
				"metallicFactor":0,
				"roughnessFactor":0.6000000238418579
			}
		},
		{
			"doubleSided":true,
			"name":"lambert1",
			"pbrMetallicRoughness":{
				"baseColorFactor":[
					0.5,
					0.5,
					0.5,
					1
				],
				"metallicFactor":0,
				"roughnessFactor":0.6000000238418579
			}
		},
		{
			"doubleSided":true,
			"name":"lambert6",
			"pbrMetallicRoughness":{
				"baseColorFactor":[
					0.75,
					0.6727839708328247,
					0.484499990940094,
					1
				],
				"metallicFactor":0,
				"roughnessFactor":0.6000000238418579
			}
		},
		{
			"alphaMode":"BLEND",
			"doubleSided":true,
			"name":"lambert7",
			"pbrMetallicRoughness":{
				"baseColorFactor":[
					0.399399995803833,
					0.683899998664856,
					0.7339000105857849,
					0.30000001192092896
				],
				"metallicFactor":0,
				"roughnessFactor":0
			}
		},
		{
			"doubleSided":true,
			"name":"lambert8",
			"pbrMetallicRoughness":{
				"baseColorFactor":[
					0.10000000149011612,
					0.10000000149011612,
					0.10000000149011612,
					1
				],
				"metallicFactor":0,
				"roughnessFactor":0.6000000238418579
			}
		},
		{
			"doubleSided":true,
			"name":"lambert9",
			"pbrMetallicRoughness":{
				"metallicFactor":0,
				"roughnessFactor":0.6000000238418579
			}
		},
		{
			"doubleSided":true,
			"name":"lambert3",
			"pbrMetallicRoughness":{
				"baseColorFactor":[
					0.20800000429153442,
					0.10543199628591537,
					0,
					1
				],
				"metallicFactor":0,
				"roughnessFactor":0.6000000238418579
			}
		},
		{
			"doubleSided":true,
			"name":"lambert4",
			"pbrMetallicRoughness":{
				"baseColorFactor":[
					0.75,
					0.6190000176429749,
					0.27889999747276306,
					1
				],
				"metallicFactor":0,
				"roughnessFactor":0.6000000238418579
			}
		},
		{
			"doubleSided":true,
			"name":"lambert5",
			"pbrMetallicRoughness":{
				"baseColorFactor":[
					0.060100000351667404,
					0.02759999968111515,
					0.0035000001080334187,
					1
				],
				"metallicFactor":0,
				"roughnessFactor":0.6000000238418579
			}
		},
		{
			"doubleSided":true,
			"name":"lambert2",
			"pbrMetallicRoughness":{
				"baseColorFactor":[
					0.008200000040233135,
					0.3580999970436096,
					0,
					1
				],
				"metallicFactor":0,
				"roughnessFactor":0.6000000238418579
			}
		}
	],
	"meshes":[
		{
			"name":"pCube1_lambert10_0",
			"primitives":[
				{
					"attributes":{
						"POSITION":0,
						"NORMAL":1,
						"TEXCOORD_0":2,
						"TEXCOORD_1":3
					},
					"indices":4,
					"material":0
				}
			]
		},
		{
			"name":"pCube1_lambert11_0",
			"primitives":[
				{
					"attributes":{
						"POSITION":5,
						"NORMAL":6,
						"TEXCOORD_0":7,
						"TEXCOORD_1":8
					},
					"indices":9,
					"material":1
				}
			]
		},
		{
			"name":"pCube1_lambert12_0",
			"primitives":[
				{
					"attributes":{
						"POSITION":10,
						"NORMAL":11,
						"TEXCOORD_0":12,
						"TEXCOORD_1":13
					},
					"indices":14,
					"material":2
				}
			]
		},
		{
			"name":"pCube1_lambert13_0",
			"primitives":[
				{
					"attributes":{
						"POSITION":15,
						"NORMAL":16,
						"TEXCOORD_0":17,
						"TEXCOORD_1":18
					},
					"indices":19,
					"material":3
				}
			]
		},
		{
			"name":"pCube1_lambert1_0",
			"primitives":[
				{
					"attributes":{
						"POSITION":20,
						"NORMAL":21,
						"TEXCOORD_0":22,
						"TEXCOORD_1":23
					},
					"indices":24,
					"material":4
				}
			]
		},
		{
			"name":"pCube1_lambert6_0",
			"primitives":[
				{
					"attributes":{
						"POSITION":25,
						"NORMAL":26,
						"TEXCOORD_0":27,
						"TEXCOORD_1":28
					},
					"indices":29,
					"material":5
				}
			]
		},
		{
			"name":"pCube1_lambert7_0",
			"primitives":[
				{
					"attributes":{
						"POSITION":30,
						"NORMAL":31,
						"TEXCOORD_0":32,
						"TEXCOORD_1":33
					},
					"indices":34,
					"material":6
				}
			]
		},
		{
			"name":"pCube1_lambert8_0",
			"primitives":[
				{
					"attributes":{
						"POSITION":35,
						"NORMAL":36,
						"TEXCOORD_0":37,
						"TEXCOORD_1":38
					},
					"indices":39,
					"material":7
				}
			]
		},
		{
			"name":"pCube1_lambert9_0",
			"primitives":[
				{
					"attributes":{
						"POSITION":40,
						"NORMAL":41,
						"TEXCOORD_0":42,
						"TEXCOORD_1":43
					},
					"indices":44,
					"material":8
				}
			]
		},
		{
			"name":"pCube3_lambert3_0",
			"primitives":[
				{
					"attributes":{
						"POSITION":45,
						"NORMAL":46,
						"TEXCOORD_0":47
					},
					"indices":48,
					"material":9
				}
			]
		},
		{
			"name":"pCube3_lambert4_0",
			"primitives":[
				{
					"attributes":{
						"POSITION":49,
						"NORMAL":50,
						"TEXCOORD_0":51
					},
					"indices":52,
					"material":10
				}
			]
		},
		{
			"name":"pCube3_lambert5_0",
			"primitives":[
				{
					"attributes":{
						"POSITION":53,
						"NORMAL":54,
						"TEXCOORD_0":55
					},
					"indices":56,
					"material":11
				}
			]
		},
		{
			"name":"pCube5_lambert1_0",
			"primitives":[
				{
					"attributes":{
						"POSITION":57,
						"NORMAL":58,
						"TEXCOORD_0":59,
						"TEXCOORD_1":60
					},
					"indices":61,
					"material":4
				}
			]
		},
		{
			"name":"pCube5_lambert6_0",
			"primitives":[
				{
					"attributes":{
						"POSITION":62,
						"NORMAL":63,
						"TEXCOORD_0":64,
						"TEXCOORD_1":65
					},
					"indices":66,
					"material":5
				}
			]
		},
		{
			"name":"pCube5_lambert8_0",
			"primitives":[
				{
					"attributes":{
						"POSITION":67,
						"NORMAL":68,
						"TEXCOORD_0":69,
						"TEXCOORD_1":70
					},
					"indices":71,
					"material":7
				}
			]
		},
		{
			"name":"pPlatonic1_lambert2_0",
			"primitives":[
				{
					"attributes":{
						"POSITION":72,
						"NORMAL":73,
						"TEXCOORD_0":74
					},
					"indices":75,
					"material":12
				}
			]
		},
		{
			"name":"pPlatonic2_lambert2_0",
			"primitives":[
				{
					"attributes":{
						"POSITION":76,
						"NORMAL":77,
						"TEXCOORD_0":78
					},
					"indices":75,
					"material":12
				}
			]
		},
		{
			"name":"pPlatonic3_lambert2_0",
			"primitives":[
				{
					"attributes":{
						"POSITION":79,
						"NORMAL":80,
						"TEXCOORD_0":81
					},
					"indices":75,
					"material":12
				}
			]
		},
		{
			"name":"pPlatonic4_lambert2_0",
			"primitives":[
				{
					"attributes":{
						"POSITION":82,
						"NORMAL":83,
						"TEXCOORD_0":84
					},
					"indices":75,
					"material":12
				}
			]
		}
	],
	"accessors":[
		{
			"bufferView":0,
			"componentType":5126,
			"count":48,
			"max":[
				0.45891985297203064,
				0.2385372519493103,
				0.4464740753173828
			],
			"min":[
				0.27762168645858765,
				0.08375585079193115,
				0.2617630958557129
			],
			"type":"VEC3"
		},
		{
			"bufferView":1,
			"componentType":5126,
			"count":48,
			"type":"VEC3"
		},
		{
			"bufferView":2,
			"componentType":5126,
			"count":48,
			"type":"VEC2"
		},
		{
			"bufferView":3,
			"componentType":5126,
			"count":48,
			"type":"VEC2"
		},
		{
			"bufferView":4,
			"componentType":5123,
			"count":75,
			"type":"SCALAR"
		},
		{
			"bufferView":5,
			"componentType":5126,
			"count":81,
			"max":[
				0.12826932966709137,
				0.20153772830963135,
				0.41857990622520447
			],
			"min":[
				-0.028329774737358093,
				-0.4511575698852539,
				0.2888115346431732
			],
			"type":"VEC3"
		},
		{
			"bufferView":6,
			"componentType":5126,
			"count":81,
			"type":"VEC3"
		},
		{
			"bufferView":7,
			"componentType":5126,
			"count":81,
			"type":"VEC2"
		},
		{
			"bufferView":8,
			"componentType":5126,
			"count":81,
			"type":"VEC2"
		},
		{
			"bufferView":9,
			"componentType":5123,
			"count":183,
			"type":"SCALAR"
		},
		{
			"bufferView":10,
			"componentType":5126,
			"count":59,
			"max":[
				0.00994790531694889,
				-0.057339079678058624,
				0.4218094050884247
			],
			"min":[
				-0.012165496125817299,
				-0.19321653246879578,
				0.3991642892360687
			],
			"type":"VEC3"
		},
		{
			"bufferView":11,
			"componentType":5126,
			"count":59,
			"type":"VEC3"
		},
		{
			"bufferView":12,
			"componentType":5126,
			"count":59,
			"type":"VEC2"
		},
		{
			"bufferView":13,
			"componentType":5126,
			"count":59,
			"type":"VEC2"
		},
		{
			"bufferView":14,
			"componentType":5123,
			"count":90,
			"type":"SCALAR"
		},
		{
			"bufferView":15,
			"componentType":5126,
			"count":81,
			"max":[
				0.4692813754081726,
				0.23390555381774902,
				0.42302465438842773
			],
			"min":[
				-0.4402635097503662,
				-0.38510316610336304,
				-0.07216240465641022
			],
			"type":"VEC3"
		},
		{
			"bufferView":16,
			"componentType":5126,
			"count":81,
			"type":"VEC3"
		},
		{
			"bufferView":17,
			"componentType":5126,
			"count":81,
			"type":"VEC2"
		},
		{
			"bufferView":18,
			"componentType":5126,
			"count":81,
			"type":"VEC2"
		},
		{
			"bufferView":19,
			"componentType":5123,
			"count":144,
			"type":"SCALAR"
		},
		{
			"bufferView":20,
			"componentType":5126,
			"count":233,
			"max":[
				0.5121791958808899,
				0.5,
				0.48015472292900085
			],
			"min":[
				-0.5189133882522583,
				-0.5000014305114746,
				-0.5232753157615662
			],
			"type":"VEC3"
		},
		{
			"bufferView":21,
			"componentType":5126,
			"count":233,
			"type":"VEC3"
		},
		{
			"bufferView":22,
			"componentType":5126,
			"count":233,
			"type":"VEC2"
		},
		{
			"bufferView":23,
			"componentType":5126,
			"count":233,
			"type":"VEC2"
		},
		{
			"bufferView":24,
			"componentType":5123,
			"count":393,
			"type":"SCALAR"
		},
		{
			"bufferView":25,
			"componentType":5126,
			"count":237,
			"max":[
				0.5000001192092896,
				0.38631385564804077,
				0.45711106061935425
			],
			"min":[
				-0.5000002980232239,
				-0.45167267322540283,
				-0.500001072883606
			],
			"type":"VEC3"
		},
		{
			"bufferView":26,
			"componentType":5126,
			"count":237,
			"type":"VEC3"
		},
		{
			"bufferView":27,
			"componentType":5126,
			"count":237,
			"type":"VEC2"
		},
		{
			"bufferView":28,
			"componentType":5126,
			"count":237,
			"type":"VEC2"
		},
		{
			"bufferView":29,
			"componentType":5123,
			"count":546,
			"type":"SCALAR"
		},
		{
			"bufferView":30,
			"componentType":5126,
			"count":27,
			"max":[
				0.4627290666103363,
				0.21825730800628662,
				0.4520357549190521
			],
			"min":[
				-0.43225353956222534,
				-0.38599565625190735,
				-0.06529200077056885
			],
			"type":"VEC3"
		},
		{
			"bufferView":31,
			"componentType":5126,
			"count":27,
			"type":"VEC3"
		},
		{
			"bufferView":32,
			"componentType":5126,
			"count":27,
			"type":"VEC2"
		},
		{
			"bufferView":33,
			"componentType":5126,
			"count":27,
			"type":"VEC2"
		},
		{
			"bufferView":34,
			"componentType":5123,
			"count":45,
			"type":"SCALAR"
		},
		{
			"bufferView":35,
			"componentType":5126,
			"count":294,
			"max":[
				0.5172889232635498,
				0.5,
				0.4801614284515381
			],
			"min":[
				-0.5189133882522583,
				-0.5000001192092896,
				-0.5232871770858765
			],
			"type":"VEC3"
		},
		{
			"bufferView":36,
			"componentType":5126,
			"count":294,
			"type":"VEC3"
		},
		{
			"bufferView":37,
			"componentType":5126,
			"count":294,
			"type":"VEC2"
		},
		{
			"bufferView":38,
			"componentType":5126,
			"count":294,
			"type":"VEC2"
		},
		{
			"bufferView":39,
			"componentType":5123,
			"count":621,
			"type":"SCALAR"
		},
		{
			"bufferView":40,
			"componentType":5126,
			"count":52,
			"max":[
				0.4588416516780853,
				0.23727631568908691,
				0.4464740753173828
			],
			"min":[
				0.21710091829299927,
				0.08237838745117188,
				0.2617630958557129
			],
			"type":"VEC3"
		},
		{
			"bufferView":41,
			"componentType":5126,
			"count":52,
			"type":"VEC3"
		},
		{
			"bufferView":42,
			"componentType":5126,
			"count":52,
			"type":"VEC2"
		},
		{
			"bufferView":43,
			"componentType":5126,
			"count":52,
			"type":"VEC2"
		},
		{
			"bufferView":44,
			"componentType":5123,
			"count":93,
			"type":"SCALAR"
		},
		{
			"bufferView":45,
			"componentType":5126,
			"count":76,
			"max":[
				0.6385246515274048,
				0.21921861171722412,
				0.7103934288024902
			],
			"min":[
				-0.6312078833580017,
				-0.5093560218811035,
				-0.777468204498291
			],
			"type":"VEC3"
		},
		{
			"bufferView":46,
			"componentType":5126,
			"count":76,
			"type":"VEC3"
		},
		{
			"bufferView":47,
			"componentType":5126,
			"count":76,
			"type":"VEC2"
		},
		{
			"bufferView":48,
			"componentType":5123,
			"count":96,
			"type":"SCALAR"
		},
		{
			"bufferView":49,
			"componentType":5126,
			"count":234,
			"max":[
				0.6759869456291199,
				0.42565906047821045,
				0.7727236747741699
			],
			"min":[
				-0.6670369505882263,
				-0.7155748605728149,
				-0.8390803337097168
			],
			"type":"VEC3"
		},
		{
			"bufferView":50,
			"componentType":5126,
			"count":234,
			"type":"VEC3"
		},
		{
			"bufferView":51,
			"componentType":5126,
			"count":234,
			"type":"VEC2"
		},
		{
			"bufferView":52,
			"componentType":5123,
			"count":366,
			"type":"SCALAR"
		},
		{
			"bufferView":53,
			"componentType":5126,
			"count":6,
			"max":[
				0.6311980485916138,
				0.2197657823562622,
				0.5887384414672852
			],
			"min":[
				-0.6222372651100159,
				0.2043524980545044,
				-0.6502218246459961
			],
			"type":"VEC3"
		},
		{
			"bufferView":54,
			"componentType":5126,
			"count":6,
			"type":"VEC3"
		},
		{
			"bufferView":55,
			"componentType":5126,
			"count":6,
			"type":"VEC2"
		},
		{
			"bufferView":56,
			"componentType":5123,
			"count":6,
			"type":"SCALAR"
		},
		{
			"bufferView":57,
			"componentType":5126,
			"count":84,
			"max":[
				-3.140740394592285,
				8.088672637939453,
				-2.4062724113464355
			],
			"min":[
				-6.917279243469238,
				6.590229511260986,
				-4.894451141357422
			],
			"type":"VEC3"
		},
		{
			"bufferView":58,
			"componentType":5126,
			"count":84,
			"type":"VEC3"
		},
		{
			"bufferView":59,
			"componentType":5126,
			"count":84,
			"type":"VEC2"
		},
		{
			"bufferView":60,
			"componentType":5126,
			"count":84,
			"type":"VEC2"
		},
		{
			"bufferView":61,
			"componentType":5123,
			"count":96,
			"type":"SCALAR"
		},
		{
			"bufferView":62,
			"componentType":5126,
			"count":20,
			"max":[
				-3.4554522037506104,
				8.033133506774902,
				-2.6830766201019287
			],
			"min":[
				-6.602567672729492,
				6.91210412979126,
				-4.617647171020508
			],
			"type":"VEC3"
		},
		{
			"bufferView":63,
			"componentType":5126,
			"count":20,
			"type":"VEC3"
		},
		{
			"bufferView":64,
			"componentType":5126,
			"count":20,
			"type":"VEC2"
		},
		{
			"bufferView":65,
			"componentType":5126,
			"count":20,
			"type":"VEC2"
		},
		{
			"bufferView":66,
			"componentType":5123,
			"count":30,
			"type":"SCALAR"
		},
		{
			"bufferView":67,
			"componentType":5126,
			"count":442,
			"max":[
				-3.140740394592285,
				8.196677207946777,
				-2.4062724113464355
			],
			"min":[
				-6.917279243469238,
				6.590229511260986,
				-4.894451141357422
			],
			"type":"VEC3"
		},
		{
			"bufferView":68,
			"componentType":5126,
			"count":442,
			"type":"VEC3"
		},
		{
			"bufferView":69,
			"componentType":5126,
			"count":442,
			"type":"VEC2"
		},
		{
			"bufferView":70,
			"componentType":5126,
			"count":442,
			"type":"VEC2"
		},
		{
			"bufferView":71,
			"componentType":5123,
			"count":1062,
			"type":"SCALAR"
		},
		{
			"bufferView":72,
			"componentType":5126,
			"count":60,
			"max":[
				1.2547036409378052,
				5.483201503753662,
				1.0333967208862305
			],
			"min":[
				-1.254370927810669,
				2.7867133617401123,
				-1.1183409690856934
			],
			"type":"VEC3"
		},
		{
			"bufferView":73,
			"componentType":5126,
			"count":60,
			"type":"VEC3"
		},
		{
			"bufferView":74,
			"componentType":5126,
			"count":60,
			"type":"VEC2"
		},
		{
			"bufferView":75,
			"componentType":5123,
			"count":60,
			"type":"SCALAR"
		},
		{
			"bufferView":76,
			"componentType":5126,
			"count":60,
			"max":[
				1.2547036409378052,
				5.483201503753662,
				1.0333967208862305
			],
			"min":[
				-1.254370927810669,
				2.7867133617401123,
				-1.1183409690856934
			],
			"type":"VEC3"
		},
		{
			"bufferView":77,
			"componentType":5126,
			"count":60,
			"type":"VEC3"
		},
		{
			"bufferView":78,
			"componentType":5126,
			"count":60,
			"type":"VEC2"
		},
		{
			"bufferView":79,
			"componentType":5126,
			"count":60,
			"max":[
				1.2547036409378052,
				5.483201503753662,
				1.0333967208862305
			],
			"min":[
				-1.254370927810669,
				2.7867133617401123,
				-1.1183409690856934
			],
			"type":"VEC3"
		},
		{
			"bufferView":80,
			"componentType":5126,
			"count":60,
			"type":"VEC3"
		},
		{
			"bufferView":81,
			"componentType":5126,
			"count":60,
			"type":"VEC2"
		},
		{
			"bufferView":82,
			"componentType":5126,
			"count":60,
			"max":[
				1.2547036409378052,
				5.483201503753662,
				1.0333967208862305
			],
			"min":[
				-1.254370927810669,
				2.7867133617401123,
				-1.1183409690856934
			],
			"type":"VEC3"
		},
		{
			"bufferView":83,
			"componentType":5126,
			"count":60,
			"type":"VEC3"
		},
		{
			"bufferView":84,
			"componentType":5126,
			"count":60,
			"type":"VEC2"
		}
	],
	"bufferViews":[
		{
			"buffer":0,
			"byteLength":576,
			"byteOffset":0,
			"target":34962
		},
		{
			"buffer":0,
			"byteLength":576,
			"byteOffset":576,
			"target":34962
		},
		{
			"buffer":0,
			"byteLength":384,
			"byteOffset":1152,
			"target":34962
		},
		{
			"buffer":0,
			"byteLength":384,
			"byteOffset":1536,
			"target":34962
		},
		{
			"buffer":0,
			"byteLength":150,
			"byteOffset":1920,
			"target":34963
		},
		{
			"buffer":0,
			"byteLength":972,
			"byteOffset":2072,
			"target":34962
		},
		{
			"buffer":0,
			"byteLength":972,
			"byteOffset":3044,
			"target":34962
		},
		{
			"buffer":0,
			"byteLength":648,
			"byteOffset":4016,
			"target":34962
		},
		{
			"buffer":0,
			"byteLength":648,
			"byteOffset":4664,
			"target":34962
		},
		{
			"buffer":0,
			"byteLength":366,
			"byteOffset":5312,
			"target":34963
		},
		{
			"buffer":0,
			"byteLength":708,
			"byteOffset":5680,
			"target":34962
		},
		{
			"buffer":0,
			"byteLength":708,
			"byteOffset":6388,
			"target":34962
		},
		{
			"buffer":0,
			"byteLength":472,
			"byteOffset":7096,
			"target":34962
		},
		{
			"buffer":0,
			"byteLength":472,
			"byteOffset":7568,
			"target":34962
		},
		{
			"buffer":0,
			"byteLength":180,
			"byteOffset":8040,
			"target":34963
		},
		{
			"buffer":0,
			"byteLength":972,
			"byteOffset":8220,
			"target":34962
		},
		{
			"buffer":0,
			"byteLength":972,
			"byteOffset":9192,
			"target":34962
		},
		{
			"buffer":0,
			"byteLength":648,
			"byteOffset":10164,
			"target":34962
		},
		{
			"buffer":0,
			"byteLength":648,
			"byteOffset":10812,
			"target":34962
		},
		{
			"buffer":0,
			"byteLength":288,
			"byteOffset":11460,
			"target":34963
		},
		{
			"buffer":0,
			"byteLength":2796,
			"byteOffset":11748,
			"target":34962
		},
		{
			"buffer":0,
			"byteLength":2796,
			"byteOffset":14544,
			"target":34962
		},
		{
			"buffer":0,
			"byteLength":1864,
			"byteOffset":17340,
			"target":34962
		},
		{
			"buffer":0,
			"byteLength":1864,
			"byteOffset":19204,
			"target":34962
		},
		{
			"buffer":0,
			"byteLength":786,
			"byteOffset":21068,
			"target":34963
		},
		{
			"buffer":0,
			"byteLength":2844,
			"byteOffset":21856,
			"target":34962
		},
		{
			"buffer":0,
			"byteLength":2844,
			"byteOffset":24700,
			"target":34962
		},
		{
			"buffer":0,
			"byteLength":1896,
			"byteOffset":27544,
			"target":34962
		},
		{
			"buffer":0,
			"byteLength":1896,
			"byteOffset":29440,
			"target":34962
		},
		{
			"buffer":0,
			"byteLength":1092,
			"byteOffset":31336,
			"target":34963
		},
		{
			"buffer":0,
			"byteLength":324,
			"byteOffset":32428,
			"target":34962
		},
		{
			"buffer":0,
			"byteLength":324,
			"byteOffset":32752,
			"target":34962
		},
		{
			"buffer":0,
			"byteLength":216,
			"byteOffset":33076,
			"target":34962
		},
		{
			"buffer":0,
			"byteLength":216,
			"byteOffset":33292,
			"target":34962
		},
		{
			"buffer":0,
			"byteLength":90,
			"byteOffset":33508,
			"target":34963
		},
		{
			"buffer":0,
			"byteLength":3528,
			"byteOffset":33600,
			"target":34962
		},
		{
			"buffer":0,
			"byteLength":3528,
			"byteOffset":37128,
			"target":34962
		},
		{
			"buffer":0,
			"byteLength":2352,
			"byteOffset":40656,
			"target":34962
		},
		{
			"buffer":0,
			"byteLength":2352,
			"byteOffset":43008,
			"target":34962
		},
		{
			"buffer":0,
			"byteLength":1242,
			"byteOffset":45360,
			"target":34963
		},
		{
			"buffer":0,
			"byteLength":624,
			"byteOffset":46604,
			"target":34962
		},
		{
			"buffer":0,
			"byteLength":624,
			"byteOffset":47228,
			"target":34962
		},
		{
			"buffer":0,
			"byteLength":416,
			"byteOffset":47852,
			"target":34962
		},
		{
			"buffer":0,
			"byteLength":416,
			"byteOffset":48268,
			"target":34962
		},
		{
			"buffer":0,
			"byteLength":186,
			"byteOffset":48684,
			"target":34963
		},
		{
			"buffer":0,
			"byteLength":912,
			"byteOffset":48872,
			"target":34962
		},
		{
			"buffer":0,
			"byteLength":912,
			"byteOffset":49784,
			"target":34962
		},
		{
			"buffer":0,
			"byteLength":608,
			"byteOffset":50696,
			"target":34962
		},
		{
			"buffer":0,
			"byteLength":192,
			"byteOffset":51304,
			"target":34963
		},
		{
			"buffer":0,
			"byteLength":2808,
			"byteOffset":51496,
			"target":34962
		},
		{
			"buffer":0,
			"byteLength":2808,
			"byteOffset":54304,
			"target":34962
		},
		{
			"buffer":0,
			"byteLength":1872,
			"byteOffset":57112,
			"target":34962
		},
		{
			"buffer":0,
			"byteLength":732,
			"byteOffset":58984,
			"target":34963
		},
		{
			"buffer":0,
			"byteLength":72,
			"byteOffset":59716,
			"target":34962
		},
		{
			"buffer":0,
			"byteLength":72,
			"byteOffset":59788,
			"target":34962
		},
		{
			"buffer":0,
			"byteLength":48,
			"byteOffset":59860,
			"target":34962
		},
		{
			"buffer":0,
			"byteLength":12,
			"byteOffset":59908,
			"target":34963
		},
		{
			"buffer":0,
			"byteLength":1008,
			"byteOffset":59920,
			"target":34962
		},
		{
			"buffer":0,
			"byteLength":1008,
			"byteOffset":60928,
			"target":34962
		},
		{
			"buffer":0,
			"byteLength":672,
			"byteOffset":61936,
			"target":34962
		},
		{
			"buffer":0,
			"byteLength":672,
			"byteOffset":62608,
			"target":34962
		},
		{
			"buffer":0,
			"byteLength":192,
			"byteOffset":63280,
			"target":34963
		},
		{
			"buffer":0,
			"byteLength":240,
			"byteOffset":63472,
			"target":34962
		},
		{
			"buffer":0,
			"byteLength":240,
			"byteOffset":63712,
			"target":34962
		},
		{
			"buffer":0,
			"byteLength":160,
			"byteOffset":63952,
			"target":34962
		},
		{
			"buffer":0,
			"byteLength":160,
			"byteOffset":64112,
			"target":34962
		},
		{
			"buffer":0,
			"byteLength":60,
			"byteOffset":64272,
			"target":34963
		},
		{
			"buffer":0,
			"byteLength":5304,
			"byteOffset":64332,
			"target":34962
		},
		{
			"buffer":0,
			"byteLength":5304,
			"byteOffset":69636,
			"target":34962
		},
		{
			"buffer":0,
			"byteLength":3536,
			"byteOffset":74940,
			"target":34962
		},
		{
			"buffer":0,
			"byteLength":3536,
			"byteOffset":78476,
			"target":34962
		},
		{
			"buffer":0,
			"byteLength":2124,
			"byteOffset":82012,
			"target":34963
		},
		{
			"buffer":0,
			"byteLength":720,
			"byteOffset":84136,
			"target":34962
		},
		{
			"buffer":0,
			"byteLength":720,
			"byteOffset":84856,
			"target":34962
		},
		{
			"buffer":0,
			"byteLength":480,
			"byteOffset":85576,
			"target":34962
		},
		{
			"buffer":0,
			"byteLength":120,
			"byteOffset":86056,
			"target":34963
		},
		{
			"buffer":0,
			"byteLength":720,
			"byteOffset":86176,
			"target":34962
		},
		{
			"buffer":0,
			"byteLength":720,
			"byteOffset":86896,
			"target":34962
		},
		{
			"buffer":0,
			"byteLength":480,
			"byteOffset":87616,
			"target":34962
		},
		{
			"buffer":0,
			"byteLength":720,
			"byteOffset":88096,
			"target":34962
		},
		{
			"buffer":0,
			"byteLength":720,
			"byteOffset":88816,
			"target":34962
		},
		{
			"buffer":0,
			"byteLength":480,
			"byteOffset":89536,
			"target":34962
		},
		{
			"buffer":0,
			"byteLength":720,
			"byteOffset":90016,
			"target":34962
		},
		{
			"buffer":0,
			"byteLength":720,
			"byteOffset":90736,
			"target":34962
		},
		{
			"buffer":0,
			"byteLength":480,
			"byteOffset":91456,
			"target":34962
		}
	],
	"buffers":[
		{
			"byteLength":91936,
			"uri":"Untitled.bin"
		}
	]
}
