{
	"asset":{
		"generator":"Khronos glTF Blender I/O v5.1.19",
		"version":"2.0"
	},
	"scene":0,
	"scenes":[
		{
			"name":"Scene",
			"nodes":[
				104
			]
		}
	],
	"nodes":[
		{
			"mesh":0,
			"name":"Object_104",
			"rotation":[
				0,
				0,
				0.8502320647239685,
				0.5264080762863159
			],
			"translation":[
				-12.961783409118652,
				-41.336612701416016,
				-1.1536706686019897
			]
		},
		{
			"children":[
				0
			],
			"name":"3DSMeshMatrix.031",
			"rotation":[
				-0.70710688829422,
				0,
				0,
				0.7071066498756409
			],
			"scale":[
				1,
				2.4010121822357178,
				1
			],
			"translation":[
				-0.0450529046356678,
				-15.023530006408691,
				-60.025306701660156
			]
		},
		{
			"children":[
				1
			],
			"name":"?????",
			"rotation":[
				0.70710688829422,
				0,
				0,
				0.7071066498756409
			],
			"scale":[
				1,
				1,
				0.41649115085601807
			],
			"translation":[
				0.04505443572998047,
				-25.000003814697266,
				15.023527145385742
			]
		},
		{
			"mesh":1,
			"name":"Object_60"
		},
		{
			"mesh":2,
			"name":"Object_61"
		},
		{
			"mesh":3,
			"name":"Object_62"
		},
		{
			"mesh":4,
			"name":"Object_63"
		},
		{
			"children":[
				3,
				4,
				5,
				6
			],
			"name":"3DSMeshMatrix.018",
			"rotation":[
				0,
				0,
				0.7071068286895752,
				0.7071067094802856
			],
			"translation":[
				0,
				-0.04505729675292969,
				0
			]
		},
		{
			"children":[
				7
			],
			"name":"??????",
			"rotation":[
				0,
				0,
				-0.7071068286895752,
				0.7071067094802856
			],
			"translation":[
				0.04505729675292969,
				0,
				0
			]
		},
		{
			"mesh":5,
			"name":"Object_79"
		},
		{
			"children":[
				9
			],
			"name":"3DSMeshMatrix.023",
			"translation":[
				-26.50597381591797,
				30.2369327545166,
				0
			]
		},
		{
			"children":[
				10
			],
			"name":"Cylinder01",
			"translation":[
				-0.17785263061523438,
				0,
				-5.136246204376221
			]
		},
		{
			"mesh":6,
			"name":"Object_82"
		},
		{
			"children":[
				12
			],
			"name":"3DSMeshMatrix.024",
			"translation":[
				-26.50597381591797,
				30.2369327545166,
				-6.901028156280518
			]
		},
		{
			"children":[
				13
			],
			"name":"Hedra002",
			"translation":[
				-0.17785263061523438,
				0,
				1.7647812366485596
			]
		},
		{
			"children":[
				11,
				14
			],
			"name":"?????? + 0",
			"translation":[
				26.683822631835938,
				-30.2369327545166,
				5.136246681213379
			]
		},
		{
			"mesh":7,
			"name":"Object_89"
		},
		{
			"children":[
				16
			],
			"name":"3DSMeshMatrix.026",
			"translation":[
				26.822195053100586,
				30.2369327545166,
				0
			]
		},
		{
			"children":[
				17
			],
			"name":"Cylinder00",
			"translation":[
				-0.17784881591796875,
				0,
				-5.136246204376221
			]
		},
		{
			"mesh":8,
			"name":"Object_86"
		},
		{
			"children":[
				19
			],
			"name":"3DSMeshMatrix.025",
			"translation":[
				26.822195053100586,
				30.2369327545166,
				-6.901028156280518
			]
		},
		{
			"children":[
				20
			],
			"name":"Hedra001",
			"translation":[
				-0.17784881591796875,
				0,
				1.7647812366485596
			]
		},
		{
			"children":[
				18,
				21
			],
			"name":"?????? + ?",
			"translation":[
				-26.64434242248535,
				-30.2369327545166,
				5.136246681213379
			]
		},
		{
			"mesh":9,
			"name":"Object_23"
		},
		{
			"children":[
				23
			],
			"name":"3DSMeshMatrix.006",
			"rotation":[
				0.5,
				-0.5,
				0.5,
				0.5
			],
			"scale":[
				-1,
				-1,
				-1
			],
			"translation":[
				33.90929412841797,
				-20.021728515625,
				-9.954946517944336
			]
		},
		{
			"children":[
				24
			],
			"name":"????? 003",
			"rotation":[
				-0.5,
				0.5,
				-0.5,
				0.5
			],
			"scale":[
				-1,
				-1,
				-1
			],
			"translation":[
				9.999998092651367,
				-4.430830955505371,
				-2.2634379863739014
			]
		},
		{
			"mesh":10,
			"name":"Object_26"
		},
		{
			"children":[
				26
			],
			"name":"3DSMeshMatrix.007",
			"rotation":[
				0.5,
				-0.5,
				0.5,
				0.5
			],
			"scale":[
				-1,
				-1,
				-1
			],
			"translation":[
				33.90929412841797,
				-20.021728515625,
				-12.454949378967285
			]
		},
		{
			"children":[
				27
			],
			"name":"Line017",
			"rotation":[
				-0.5,
				0.5,
				-0.5,
				0.5
			],
			"scale":[
				-1,
				-1,
				-1
			],
			"translation":[
				7.499996185302734,
				-4.430830955505371,
				-2.2634379863739014
			]
		},
		{
			"mesh":11,
			"name":"Object_5"
		},
		{
			"children":[
				29
			],
			"name":"3DSMeshMatrix",
			"rotation":[
				0.5,
				-0.5,
				0.5,
				0.5
			],
			"scale":[
				-1,
				-1,
				-1
			],
			"translation":[
				33.90929412841797,
				-20.021728515625,
				-14.954948425292969
			]
		},
		{
			"children":[
				30
			],
			"name":"Line018",
			"rotation":[
				-0.5,
				0.5,
				-0.5,
				0.5
			],
			"scale":[
				-1,
				-1,
				-1
			],
			"translation":[
				4.999996185302734,
				-4.430830955505371,
				-2.2634379863739014
			]
		},
		{
			"mesh":12,
			"name":"Object_8"
		},
		{
			"children":[
				32
			],
			"name":"3DSMeshMatrix.001",
			"rotation":[
				0.5,
				-0.5,
				0.5,
				0.5
			],
			"scale":[
				-1,
				-1,
				-1
			],
			"translation":[
				33.90929412841797,
				-20.021728515625,
				-17.45494842529297
			]
		},
		{
			"children":[
				33
			],
			"name":"Line019",
			"rotation":[
				-0.5,
				0.5,
				-0.5,
				0.5
			],
			"scale":[
				-1,
				-1,
				-1
			],
			"translation":[
				2.4999961853027344,
				-4.430830955505371,
				-2.2634379863739014
			]
		},
		{
			"mesh":13,
			"name":"Object_11"
		},
		{
			"children":[
				35
			],
			"name":"3DSMeshMatrix.002",
			"rotation":[
				0.5,
				-0.5,
				0.5,
				0.5
			],
			"scale":[
				-1,
				-1,
				-1
			],
			"translation":[
				33.90929412841797,
				-20.021728515625,
				-19.95494842529297
			]
		},
		{
			"children":[
				36
			],
			"name":"Line020",
			"rotation":[
				-0.5,
				0.5,
				-0.5,
				0.5
			],
			"scale":[
				-1,
				-1,
				-1
			],
			"translation":[
				-3.814697265625e-06,
				-4.430830955505371,
				-2.2634379863739014
			]
		},
		{
			"mesh":14,
			"name":"Object_14"
		},
		{
			"children":[
				38
			],
			"name":"3DSMeshMatrix.003",
			"rotation":[
				0.5,
				-0.5,
				0.5,
				0.5
			],
			"scale":[
				-1,
				-1,
				-1
			],
			"translation":[
				33.90929412841797,
				-20.021728515625,
				-22.454946517944336
			]
		},
		{
			"children":[
				39
			],
			"name":"Line021",
			"rotation":[
				-0.5,
				0.5,
				-0.5,
				0.5
			],
			"scale":[
				-1,
				-1,
				-1
			],
			"translation":[
				-2.5000038146972656,
				-4.430830955505371,
				-2.2634379863739014
			]
		},
		{
			"mesh":15,
			"name":"Object_17"
		},
		{
			"children":[
				41
			],
			"name":"3DSMeshMatrix.004",
			"rotation":[
				0.5,
				-0.5,
				0.5,
				0.5
			],
			"scale":[
				-1,
				-1,
				-1
			],
			"translation":[
				33.90929412841797,
				-20.021728515625,
				-24.9549503326416
			]
		},
		{
			"children":[
				42
			],
			"name":"Line022",
			"rotation":[
				-0.5,
				0.5,
				-0.5,
				0.5
			],
			"scale":[
				-1,
				-1,
				-1
			],
			"translation":[
				-5.000003814697266,
				-4.430830955505371,
				-2.2634379863739014
			]
		},
		{
			"mesh":16,
			"name":"Object_20"
		},
		{
			"children":[
				44
			],
			"name":"3DSMeshMatrix.005",
			"rotation":[
				-0.5000001192092896,
				-0.5000000596046448,
				-0.4999999403953552,
				0.5000000596046448
			],
			"translation":[
				25.047637939453125,
				-24.548601150512695,
				24.954938888549805
			]
		},
		{
			"children":[
				45
			],
			"name":"Line023",
			"rotation":[
				0.5000001788139343,
				0.5,
				0.5,
				0.5
			],
			"translation":[
				-7.499996185302734,
				4.635185177903622e-06,
				-2.053342541330494e-06
			]
		},
		{
			"children":[
				25,
				28,
				31,
				34,
				37,
				40,
				43,
				46
			],
			"name":"??????? ??",
			"translation":[
				-19.954944610595703,
				-29.47846221923828,
				22.28516960144043
			]
		},
		{
			"mesh":17,
			"name":"Object_51"
		},
		{
			"children":[
				48
			],
			"name":"3DSMeshMatrix.015",
			"rotation":[
				0.5,
				-0.5,
				0.5,
				0.5
			],
			"scale":[
				-1,
				-1,
				-1
			],
			"translation":[
				33.90929412841797,
				-20.02257537841797,
				30.04505729675293
			]
		},
		{
			"children":[
				49
			],
			"name":"????? 2",
			"rotation":[
				-0.5,
				0.5,
				-0.5,
				0.5
			],
			"scale":[
				-1,
				-1,
				-1
			],
			"translation":[
				10.000001907348633,
				-4.430830955505371,
				-2.2634379863739014
			]
		},
		{
			"mesh":18,
			"name":"Object_48"
		},
		{
			"children":[
				51
			],
			"name":"3DSMeshMatrix.014",
			"rotation":[
				0.5,
				-0.5,
				0.5,
				0.5
			],
			"scale":[
				-1,
				-1,
				-1
			],
			"translation":[
				33.90929412841797,
				-20.02257537841797,
				27.545059204101562
			]
		},
		{
			"children":[
				52
			],
			"name":"Line010",
			"rotation":[
				-0.5,
				0.5,
				-0.5,
				0.5
			],
			"scale":[
				-1,
				-1,
				-1
			],
			"translation":[
				7.500001907348633,
				-4.430830955505371,
				-2.2634379863739014
			]
		},
		{
			"mesh":19,
			"name":"Object_45"
		},
		{
			"children":[
				54
			],
			"name":"3DSMeshMatrix.013",
			"rotation":[
				0.5,
				-0.5,
				0.5,
				0.5
			],
			"scale":[
				-1,
				-1,
				-1
			],
			"translation":[
				33.90929412841797,
				-20.02257537841797,
				25.045059204101562
			]
		},
		{
			"children":[
				55
			],
			"name":"Line011",
			"rotation":[
				-0.5,
				0.5,
				-0.5,
				0.5
			],
			"scale":[
				-1,
				-1,
				-1
			],
			"translation":[
				5.000001907348633,
				-4.430830955505371,
				-2.2634379863739014
			]
		},
		{
			"mesh":20,
			"name":"Object_42"
		},
		{
			"children":[
				57
			],
			"name":"3DSMeshMatrix.012",
			"rotation":[
				0.5,
				-0.5,
				0.5,
				0.5
			],
			"scale":[
				-1,
				-1,
				-1
			],
			"translation":[
				33.90929412841797,
				-20.02257537841797,
				22.545055389404297
			]
		},
		{
			"children":[
				58
			],
			"name":"Line012",
			"rotation":[
				-0.5,
				0.5,
				-0.5,
				0.5
			],
			"scale":[
				-1,
				-1,
				-1
			],
			"translation":[
				2.500001907348633,
				-4.430830955505371,
				-2.2634379863739014
			]
		},
		{
			"mesh":21,
			"name":"Object_39"
		},
		{
			"children":[
				60
			],
			"name":"3DSMeshMatrix.011",
			"rotation":[
				0.5,
				-0.5,
				0.5,
				0.5
			],
			"scale":[
				-1,
				-1,
				-1
			],
			"translation":[
				33.90929412841797,
				-20.02257537841797,
				20.045055389404297
			]
		},
		{
			"children":[
				61
			],
			"name":"Line013",
			"rotation":[
				-0.5,
				0.5,
				-0.5,
				0.5
			],
			"scale":[
				-1,
				-1,
				-1
			],
			"translation":[
				0,
				-4.430830955505371,
				-2.2634379863739014
			]
		},
		{
			"mesh":22,
			"name":"Object_33"
		},
		{
			"children":[
				63
			],
			"name":"3DSMeshMatrix.009",
			"rotation":[
				0.5,
				-0.5,
				0.5,
				0.5
			],
			"scale":[
				-1,
				-1,
				-1
			],
			"translation":[
				33.90929412841797,
				-20.02257537841797,
				17.54505729675293
			]
		},
		{
			"children":[
				64
			],
			"name":"Line014",
			"rotation":[
				-0.5,
				0.5,
				-0.5,
				0.5
			],
			"scale":[
				-1,
				-1,
				-1
			],
			"translation":[
				-2.499998092651367,
				-4.430830955505371,
				-2.2634379863739014
			]
		},
		{
			"mesh":23,
			"name":"Object_36"
		},
		{
			"children":[
				66
			],
			"name":"3DSMeshMatrix.010",
			"rotation":[
				0.5,
				-0.5,
				0.5,
				0.5
			],
			"scale":[
				-1,
				-1,
				-1
			],
			"translation":[
				33.90929412841797,
				-20.02257537841797,
				15.04505729675293
			]
		},
		{
			"children":[
				67
			],
			"name":"Line015",
			"rotation":[
				-0.5,
				0.5,
				-0.5,
				0.5
			],
			"scale":[
				-1,
				-1,
				-1
			],
			"translation":[
				-4.999998092651367,
				-4.430830955505371,
				-2.2634379863739014
			]
		},
		{
			"mesh":24,
			"name":"Object_30"
		},
		{
			"children":[
				69
			],
			"name":"3DSMeshMatrix.008",
			"rotation":[
				-0.5000001192092896,
				-0.5000000596046448,
				-0.4999999403953552,
				0.5000000596046448
			],
			"translation":[
				25.04763412475586,
				-24.549453735351562,
				-15.04506778717041
			]
		},
		{
			"children":[
				70
			],
			"name":"Line016",
			"rotation":[
				0.5000001192092896,
				0.5,
				0.5,
				0.5
			],
			"translation":[
				-7.499995231628418,
				4.635070581571199e-06,
				0
			]
		},
		{
			"children":[
				50,
				53,
				56,
				59,
				62,
				65,
				68,
				71
			],
			"name":"??????? ??.001",
			"translation":[
				20.04505729675293,
				-29.47846221923828,
				22.2860164642334
			]
		},
		{
			"mesh":25,
			"name":"Object_72"
		},
		{
			"children":[
				73
			],
			"name":"3DSMeshMatrix.021",
			"scale":[
				0.8115565776824951,
				0.8115566372871399,
				0.8115566372871399
			],
			"translation":[
				-32.248504638671875,
				0.6121588945388794,
				-0.8090068697929382
			]
		},
		{
			"children":[
				74
			],
			"name":"Box001",
			"scale":[
				1.232200026512146,
				1.232200026512146,
				1.232200026512146
			],
			"translation":[
				40.36238098144531,
				-0.044970154762268066,
				0
			]
		},
		{
			"mesh":26,
			"name":"Object_75"
		},
		{
			"children":[
				76
			],
			"name":"3DSMeshMatrix.022",
			"scale":[
				0.8115565776824951,
				0.8115566372871399,
				0.8115566372871399
			],
			"translation":[
				-32.70058822631836,
				0,
				7.70196533203125
			]
		},
		{
			"children":[
				77
			],
			"name":"Box002",
			"scale":[
				1.232200026512146,
				1.232200026512146,
				1.232200026512146
			],
			"translation":[
				40.29366683959961,
				0,
				-0.7317429780960083
			]
		},
		{
			"mesh":27,
			"name":"Object_101",
			"translation":[
				0,
				0,
				0.1205325722694397
			]
		},
		{
			"children":[
				79
			],
			"name":"3DSMeshMatrix.030",
			"rotation":[
				0,
				0,
				-0.70710688829422,
				0.7071066498756409
			],
			"translation":[
				-13.350250244140625,
				-19.850833892822266,
				-30.0000057220459
			]
		},
		{
			"children":[
				80
			],
			"name":"Box003",
			"rotation":[
				0,
				0,
				0.70710688829422,
				0.7071066498756409
			],
			"translation":[
				-19.85083770751953,
				13.35024356842041,
				30.0000057220459
			]
		},
		{
			"mesh":28,
			"name":"Object_98",
			"translation":[
				0,
				0,
				0.5403735637664795
			]
		},
		{
			"children":[
				82
			],
			"name":"3DSMeshMatrix.029",
			"rotation":[
				0,
				0,
				-0.70710688829422,
				0.7071066498756409
			],
			"translation":[
				-13.350250244140625,
				-19.850833892822266,
				-30.5000057220459
			]
		},
		{
			"children":[
				83
			],
			"name":"Box004",
			"rotation":[
				0,
				0,
				0.70710688829422,
				0.7071066498756409
			],
			"translation":[
				-19.85083770751953,
				13.35024356842041,
				30.5000057220459
			]
		},
		{
			"mesh":29,
			"name":"Object_95"
		},
		{
			"children":[
				85
			],
			"name":"3DSMeshMatrix.028",
			"rotation":[
				0,
				0,
				-0.70710688829422,
				0.7071066498756409
			],
			"translation":[
				-14.701082229614258,
				-23.09388542175293,
				-35.50000762939453
			]
		},
		{
			"children":[
				86
			],
			"name":"Box005",
			"rotation":[
				0,
				0,
				0.70710688829422,
				0.7071066498756409
			],
			"translation":[
				-23.093891143798828,
				14.701074600219727,
				35.50000762939453
			]
		},
		{
			"mesh":30,
			"name":"Object_92"
		},
		{
			"children":[
				88
			],
			"name":"3DSMeshMatrix.027",
			"rotation":[
				0,
				0,
				-0.70710688829422,
				0.7071066498756409
			],
			"translation":[
				-11.86102294921875,
				-23.093887329101562,
				-35.50000762939453
			]
		},
		{
			"children":[
				89
			],
			"name":"Box007",
			"rotation":[
				0,
				0,
				0.70710688829422,
				0.7071066498756409
			],
			"translation":[
				-23.093891143798828,
				11.861015319824219,
				35.50000762939453
			]
		},
		{
			"mesh":31,
			"name":"Object_66"
		},
		{
			"children":[
				91
			],
			"name":"3DSMeshMatrix.019",
			"rotation":[
				0,
				0,
				-0.5765116810798645,
				0.8170889019966125
			],
			"scale":[
				0.6008958220481873,
				0.7393901348114014,
				0.756017804145813
			],
			"translation":[
				-5.237071990966797,
				-11.317501068115234,
				-27.06661033630371
			]
		},
		{
			"children":[
				92
			],
			"name":"Box008",
			"rotation":[
				0,
				0,
				0.5809305906295776,
				0.8139532208442688
			],
			"scale":[
				1.3227204084396362,
				1.7246235609054565,
				1.3227202892303467
			],
			"translation":[
				-17.241374969482422,
				13.25082778930664,
				35.761878967285156
			]
		},
		{
			"mesh":32,
			"name":"Object_57"
		},
		{
			"children":[
				94
			],
			"name":"3DSMeshMatrix.017",
			"scale":[
				0.8115565776824951,
				0.8115566372871399,
				0.8115566372871399
			],
			"translation":[
				-32.248504638671875,
				-7.430280685424805,
				-0.8090068697929382
			]
		},
		{
			"children":[
				95
			],
			"name":"Box009",
			"scale":[
				1.232200026512146,
				1.232200026512146,
				1.232200026512146
			],
			"translation":[
				40.36238098144531,
				9.864925384521484,
				0
			]
		},
		{
			"mesh":33,
			"name":"Object_54"
		},
		{
			"children":[
				97
			],
			"name":"3DSMeshMatrix.016",
			"scale":[
				0.8115565776824951,
				0.8115566372871399,
				0.8115566372871399
			],
			"translation":[
				-32.70058822631836,
				-8.042442321777344,
				7.70196533203125
			]
		},
		{
			"children":[
				98
			],
			"name":"Box010",
			"scale":[
				1.232200026512146,
				1.232200026512146,
				1.232200026512146
			],
			"translation":[
				40.29366683959961,
				9.909895896911621,
				-0.7317429780960083
			]
		},
		{
			"mesh":34,
			"name":"Object_69"
		},
		{
			"children":[
				100
			],
			"name":"3DSMeshMatrix.020",
			"scale":[
				0.5340209603309631,
				0.5340209603309631,
				0.5667890310287476
			],
			"translation":[
				9.20854663848877,
				-7.074233531951904,
				-19.946945190429688
			]
		},
		{
			"children":[
				101
			],
			"name":"Cylinder02",
			"scale":[
				1.8725857734680176,
				1.8725857734680176,
				1.7643249034881592
			],
			"translation":[
				-17.243793487548828,
				13.247109413146973,
				35.192893981933594
			]
		},
		{
			"children":[
				2,
				8,
				15,
				22,
				47,
				72,
				75,
				78,
				81,
				84,
				87,
				90,
				93,
				96,
				99,
				102
			],
			"name":"05c2ef48b35c450b828205a86b61be90.3ds"
		},
		{
			"children":[
				103
			],
			"name":"Sketchfab_model",
			"rotation":[
				-0.70710688829422,
				0,
				0,
				0.7071066498756409
			]
		}
	],
	"materials":[
		{
			"doubleSided":true,
			"name":"Material_2",
			"pbrMetallicRoughness":{
				"baseColorFactor":[
					0.9960780143737793,
					0.17254899442195892,
					0.04313730075955391,
					1
				],
				"metallicFactor":0,
				"roughnessFactor":0.6000000238418579
			}
		},
		{
			"doubleSided":true,
			"name":"Material_4",
			"pbrMetallicRoughness":{
				"baseColorFactor":[
					0.19607800245285034,
					0.19607800245285034,
					0.19607800245285034,
					1
				],
				"metallicFactor":0,
				"roughnessFactor":0.6000000238418579
			}
		},
		{
			"doubleSided":true,
			"name":"Material_1",
			"pbrMetallicRoughness":{
				"baseColorFactor":[
					0.7882350087165833,
					0.5960779786109924,
					0.4235289990901947,
					1
				],
				"metallicFactor":0,
				"roughnessFactor":0.6000000238418579
			}
		},
		{
			"alphaMode":"BLEND",
			"doubleSided":true,
			"name":"Material_3",
			"pbrMetallicRoughness":{
				"baseColorFactor":[
					0.8941180109977722,
					0.8941180109977722,
					0.8941180109977722,
					0.5
				],
				"metallicFactor":0,
				"roughnessFactor":0.6000000238418579
			}
		},
		{
			"doubleSided":true,
			"name":"Material_6",
			"pbrMetallicRoughness":{
				"baseColorFactor":[
					0.21960799396038055,
					0.050980400294065475,
					0.02745099924504757,
					1
				],
				"metallicFactor":0,
				"roughnessFactor":0.6000000238418579
			}
		},
		{
			"doubleSided":true,
			"name":"Material_7",
			"pbrMetallicRoughness":{
				"baseColorFactor":[
					0.07450979948043823,
					0.3058820068836212,
					0.02745099924504757,
					1
				],
				"metallicFactor":0,
				"roughnessFactor":0.6000000238418579
			}
		},
		{
			"doubleSided":true,
			"name":"Material_5",
			"pbrMetallicRoughness":{
				"baseColorFactor":[
					0.9058820009231567,
					0.9058820009231567,
					0.9058820009231567,
					1
				],
				"metallicFactor":0,
				"roughnessFactor":0.6000000238418579
			}
		},
		{
			"doubleSided":true,
			"name":"Material_8",
			"pbrMetallicRoughness":{
				"baseColorFactor":[
					0.10980399698019028,
					0.7882350087165833,
					0.10980399698019028,
					1
				],
				"metallicFactor":0,
				"roughnessFactor":0.6000000238418579
			}
		},
		{
			"doubleSided":true,
			"name":"Material_9",
			"pbrMetallicRoughness":{
				"baseColorFactor":[
					0.11764699965715408,
					0.11764699965715408,
					0.11764699965715408,
					1
				],
				"metallicFactor":0,
				"roughnessFactor":0.6000000238418579
			}
		}
	],
	"meshes":[
		{
			"name":"Object_34",
			"primitives":[
				{
					"attributes":{
						"POSITION":0,
						"NORMAL":1,
						"TEXCOORD_0":2
					},
					"indices":3,
					"material":0
				}
			]
		},
		{
			"name":"Object_18",
			"primitives":[
				{
					"attributes":{
						"POSITION":4,
						"NORMAL":5,
						"TEXCOORD_0":6
					},
					"indices":7,
					"material":0
				}
			]
		},
		{
			"name":"Object_19",
			"primitives":[
				{
					"attributes":{
						"POSITION":8,
						"NORMAL":9,
						"TEXCOORD_0":10
					},
					"indices":11,
					"material":1
				}
			]
		},
		{
			"name":"Object_20",
			"primitives":[
				{
					"attributes":{
						"POSITION":12,
						"NORMAL":13,
						"TEXCOORD_0":14
					},
					"indices":15,
					"material":2
				}
			]
		},
		{
			"name":"Object_21",
			"primitives":[
				{
					"attributes":{
						"POSITION":16,
						"NORMAL":17,
						"TEXCOORD_0":18
					},
					"indices":19,
					"material":3
				}
			]
		},
		{
			"name":"Object_26",
			"primitives":[
				{
					"attributes":{
						"POSITION":20,
						"NORMAL":21,
						"TEXCOORD_0":22
					},
					"indices":23,
					"material":4
				}
			]
		},
		{
			"name":"Object_27",
			"primitives":[
				{
					"attributes":{
						"POSITION":24,
						"NORMAL":25,
						"TEXCOORD_0":26
					},
					"indices":27,
					"material":5
				}
			]
		},
		{
			"name":"Object_29",
			"primitives":[
				{
					"attributes":{
						"POSITION":28,
						"NORMAL":29,
						"TEXCOORD_0":30
					},
					"indices":23,
					"material":4
				}
			]
		},
		{
			"name":"Object_28",
			"primitives":[
				{
					"attributes":{
						"POSITION":31,
						"NORMAL":32,
						"TEXCOORD_0":33
					},
					"indices":27,
					"material":5
				}
			]
		},
		{
			"name":"Object_6",
			"primitives":[
				{
					"attributes":{
						"POSITION":34,
						"NORMAL":35
					},
					"indices":36,
					"material":0
				}
			]
		},
		{
			"name":"Object_7",
			"primitives":[
				{
					"attributes":{
						"POSITION":37,
						"NORMAL":38
					},
					"indices":39,
					"material":6
				}
			]
		},
		{
			"name":"Object_0",
			"primitives":[
				{
					"attributes":{
						"POSITION":40,
						"NORMAL":41
					},
					"indices":39,
					"material":0
				}
			]
		},
		{
			"name":"Object_1",
			"primitives":[
				{
					"attributes":{
						"POSITION":42,
						"NORMAL":43
					},
					"indices":39,
					"material":6
				}
			]
		},
		{
			"name":"Object_2",
			"primitives":[
				{
					"attributes":{
						"POSITION":44,
						"NORMAL":45
					},
					"indices":39,
					"material":0
				}
			]
		},
		{
			"name":"Object_3",
			"primitives":[
				{
					"attributes":{
						"POSITION":46,
						"NORMAL":47
					},
					"indices":39,
					"material":6
				}
			]
		},
		{
			"name":"Object_4",
			"primitives":[
				{
					"attributes":{
						"POSITION":48,
						"NORMAL":49
					},
					"indices":39,
					"material":0
				}
			]
		},
		{
			"name":"Object_5",
			"primitives":[
				{
					"attributes":{
						"POSITION":50,
						"NORMAL":51
					},
					"indices":36,
					"material":6
				}
			]
		},
		{
			"name":"Object_15",
			"primitives":[
				{
					"attributes":{
						"POSITION":52,
						"NORMAL":53
					},
					"indices":36,
					"material":6
				}
			]
		},
		{
			"name":"Object_14",
			"primitives":[
				{
					"attributes":{
						"POSITION":54,
						"NORMAL":55
					},
					"indices":39,
					"material":0
				}
			]
		},
		{
			"name":"Object_13",
			"primitives":[
				{
					"attributes":{
						"POSITION":56,
						"NORMAL":57
					},
					"indices":39,
					"material":6
				}
			]
		},
		{
			"name":"Object_12",
			"primitives":[
				{
					"attributes":{
						"POSITION":58,
						"NORMAL":59
					},
					"indices":39,
					"material":0
				}
			]
		},
		{
			"name":"Object_11",
			"primitives":[
				{
					"attributes":{
						"POSITION":60,
						"NORMAL":61
					},
					"indices":39,
					"material":6
				}
			]
		},
		{
			"name":"Object_9",
			"primitives":[
				{
					"attributes":{
						"POSITION":62,
						"NORMAL":63
					},
					"indices":39,
					"material":0
				}
			]
		},
		{
			"name":"Object_10",
			"primitives":[
				{
					"attributes":{
						"POSITION":64,
						"NORMAL":65
					},
					"indices":39,
					"material":6
				}
			]
		},
		{
			"name":"Object_8",
			"primitives":[
				{
					"attributes":{
						"POSITION":66,
						"NORMAL":67
					},
					"indices":36,
					"material":0
				}
			]
		},
		{
			"name":"Object_24",
			"primitives":[
				{
					"attributes":{
						"POSITION":68,
						"NORMAL":69,
						"TEXCOORD_0":70
					},
					"indices":71,
					"material":7
				}
			]
		},
		{
			"name":"Object_25",
			"primitives":[
				{
					"attributes":{
						"POSITION":72,
						"NORMAL":73,
						"TEXCOORD_0":74
					},
					"indices":75,
					"material":0
				}
			]
		},
		{
			"name":"Object_33",
			"primitives":[
				{
					"attributes":{
						"POSITION":76,
						"NORMAL":77,
						"TEXCOORD_0":78
					},
					"indices":79,
					"material":1
				}
			]
		},
		{
			"name":"Object_32",
			"primitives":[
				{
					"attributes":{
						"POSITION":80,
						"NORMAL":81,
						"TEXCOORD_0":82
					},
					"indices":79,
					"material":6
				}
			]
		},
		{
			"name":"Object_31",
			"primitives":[
				{
					"attributes":{
						"POSITION":83,
						"NORMAL":84,
						"TEXCOORD_0":85
					},
					"indices":79,
					"material":8
				}
			]
		},
		{
			"name":"Object_30",
			"primitives":[
				{
					"attributes":{
						"POSITION":86,
						"NORMAL":87,
						"TEXCOORD_0":88
					},
					"indices":79,
					"material":8
				}
			]
		},
		{
			"name":"Object_22",
			"primitives":[
				{
					"attributes":{
						"POSITION":89,
						"NORMAL":90,
						"TEXCOORD_0":91
					},
					"indices":92,
					"material":6
				}
			]
		},
		{
			"name":"Object_17",
			"primitives":[
				{
					"attributes":{
						"POSITION":93,
						"NORMAL":94,
						"TEXCOORD_0":95
					},
					"indices":71,
					"material":7
				}
			]
		},
		{
			"name":"Object_16",
			"primitives":[
				{
					"attributes":{
						"POSITION":96,
						"NORMAL":97,
						"TEXCOORD_0":98
					},
					"indices":75,
					"material":0
				}
			]
		},
		{
			"name":"Object_23",
			"primitives":[
				{
					"attributes":{
						"POSITION":99,
						"NORMAL":100,
						"TEXCOORD_0":101
					},
					"indices":102,
					"material":1
				}
			]
		}
	],
	"accessors":[
		{
			"bufferView":0,
			"componentType":5126,
			"count":194,
			"max":[
				7.045053958892822,
				-25.000003814697266,
				27.023529052734375
			],
			"min":[
				-6.928483963012695,
				-26.090089797973633,
				3.023527145385742
			],
			"type":"VEC3"
		},
		{
			"bufferView":1,
			"componentType":5126,
			"count":194,
			"type":"VEC3"
		},
		{
			"bufferView":2,
			"componentType":5126,
			"count":194,
			"type":"VEC2"
		},
		{
			"bufferView":3,
			"componentType":5123,
			"count":396,
			"type":"SCALAR"
		},
		{
			"bufferView":4,
			"componentType":5126,
			"count":406,
			"max":[
				37.54505920410156,
				27.5000057220459,
				34.000003814697266
			],
			"min":[
				-37.45494842529297,
				-27.50000762939453,
				7.999998569488525
			],
			"type":"VEC3"
		},
		{
			"bufferView":5,
			"componentType":5126,
			"count":406,
			"type":"VEC3"
		},
		{
			"bufferView":6,
			"componentType":5126,
			"count":406,
			"type":"VEC2"
		},
		{
			"bufferView":7,
			"componentType":5123,
			"count":1068,
			"type":"SCALAR"
		},
		{
			"bufferView":8,
			"componentType":5126,
			"count":203,
			"max":[
				36.04505920410156,
				26.0000057220459,
				3
			],
			"min":[
				-35.95494842529297,
				-26.0000057220459,
				-6.35782896551973e-07
			],
			"type":"VEC3"
		},
		{
			"bufferView":9,
			"componentType":5126,
			"count":203,
			"type":"VEC3"
		},
		{
			"bufferView":10,
			"componentType":5126,
			"count":203,
			"type":"VEC2"
		},
		{
			"bufferView":11,
			"componentType":5123,
			"count":486,
			"type":"SCALAR"
		},
		{
			"bufferView":12,
			"componentType":5126,
			"count":266,
			"max":[
				37.54505920410156,
				27.5000057220459,
				30
			],
			"min":[
				-37.45494842529297,
				-27.50000762939453,
				3
			],
			"type":"VEC3"
		},
		{
			"bufferView":13,
			"componentType":5126,
			"count":266,
			"type":"VEC3"
		},
		{
			"bufferView":14,
			"componentType":5126,
			"count":266,
			"type":"VEC2"
		},
		{
			"bufferView":15,
			"componentType":5123,
			"count":684,
			"type":"SCALAR"
		},
		{
			"bufferView":16,
			"componentType":5126,
			"count":18,
			"max":[
				29.26165771484375,
				14.216606140136719,
				24.217805862426758
			],
			"min":[
				-32.55024719238281,
				-36.21077346801758,
				2.356234550476074
			],
			"type":"VEC3"
		},
		{
			"bufferView":17,
			"componentType":5126,
			"count":18,
			"type":"VEC3"
		},
		{
			"bufferView":18,
			"componentType":5126,
			"count":18,
			"type":"VEC2"
		},
		{
			"bufferView":19,
			"componentType":5123,
			"count":30,
			"type":"SCALAR"
		},
		{
			"bufferView":20,
			"componentType":5126,
			"count":53,
			"max":[
				30.097759246826172,
				-26.735198974609375,
				5.569286346435547
			],
			"min":[
				23.269882202148438,
				-33.73866653442383,
				0
			],
			"type":"VEC3"
		},
		{
			"bufferView":21,
			"componentType":5126,
			"count":53,
			"type":"VEC3"
		},
		{
			"bufferView":22,
			"componentType":5126,
			"count":53,
			"type":"VEC2"
		},
		{
			"bufferView":23,
			"componentType":5123,
			"count":72,
			"type":"SCALAR"
		},
		{
			"bufferView":24,
			"componentType":5126,
			"count":57,
			"max":[
				28.889957427978516,
				-26.865467071533203,
				10.272493362426758
			],
			"min":[
				24.121986389160156,
				-33.6083984375,
				3.529561758041382
			],
			"type":"VEC3"
		},
		{
			"bufferView":25,
			"componentType":5126,
			"count":57,
			"type":"VEC3"
		},
		{
			"bufferView":26,
			"componentType":5126,
			"count":57,
			"type":"VEC2"
		},
		{
			"bufferView":27,
			"componentType":5123,
			"count":60,
			"type":"SCALAR"
		},
		{
			"bufferView":28,
			"componentType":5126,
			"count":53,
			"max":[
				-23.230403900146484,
				-26.735198974609375,
				5.569286346435547
			],
			"min":[
				-30.05828285217285,
				-33.73866653442383,
				0
			],
			"type":"VEC3"
		},
		{
			"bufferView":29,
			"componentType":5126,
			"count":53,
			"type":"VEC3"
		},
		{
			"bufferView":30,
			"componentType":5126,
			"count":53,
			"type":"VEC2"
		},
		{
			"bufferView":31,
			"componentType":5126,
			"count":57,
			"max":[
				-24.43820571899414,
				-26.865467071533203,
				10.272493362426758
			],
			"min":[
				-29.206180572509766,
				-33.6083984375,
				3.529561758041382
			],
			"type":"VEC3"
		},
		{
			"bufferView":32,
			"componentType":5126,
			"count":57,
			"type":"VEC3"
		},
		{
			"bufferView":33,
			"componentType":5126,
			"count":57,
			"type":"VEC2"
		},
		{
			"bufferView":34,
			"componentType":5126,
			"count":19,
			"max":[
				-9.954944610595703,
				-25.00000762939453,
				25
			],
			"min":[
				-12.454944610595703,
				-33.9569206237793,
				19.570341110229492
			],
			"type":"VEC3"
		},
		{
			"bufferView":35,
			"componentType":5126,
			"count":19,
			"type":"VEC3"
		},
		{
			"bufferView":36,
			"componentType":5123,
			"count":21,
			"type":"SCALAR"
		},
		{
			"bufferView":37,
			"componentType":5126,
			"count":8,
			"max":[
				-12.454947471618652,
				-25.00000762939453,
				25
			],
			"min":[
				-14.954948425292969,
				-33.9569206237793,
				19.570341110229492
			],
			"type":"VEC3"
		},
		{
			"bufferView":38,
			"componentType":5126,
			"count":8,
			"type":"VEC3"
		},
		{
			"bufferView":39,
			"componentType":5123,
			"count":12,
			"type":"SCALAR"
		},
		{
			"bufferView":40,
			"componentType":5126,
			"count":8,
			"max":[
				-14.954947471618652,
				-25.00000762939453,
				25
			],
			"min":[
				-17.45494842529297,
				-33.9569206237793,
				19.570341110229492
			],
			"type":"VEC3"
		},
		{
			"bufferView":41,
			"componentType":5126,
			"count":8,
			"type":"VEC3"
		},
		{
			"bufferView":42,
			"componentType":5126,
			"count":8,
			"max":[
				-17.45494842529297,
				-25.00000762939453,
				25
			],
			"min":[
				-19.95494842529297,
				-33.9569206237793,
				19.570341110229492
			],
			"type":"VEC3"
		},
		{
			"bufferView":43,
			"componentType":5126,
			"count":8,
			"type":"VEC3"
		},
		{
			"bufferView":44,
			"componentType":5126,
			"count":8,
			"max":[
				-19.954946517944336,
				-25.00000762939453,
				25
			],
			"min":[
				-22.454946517944336,
				-33.9569206237793,
				19.570341110229492
			],
			"type":"VEC3"
		},
		{
			"bufferView":45,
			"componentType":5126,
			"count":8,
			"type":"VEC3"
		},
		{
			"bufferView":46,
			"componentType":5126,
			"count":8,
			"max":[
				-22.45494842529297,
				-25.00000762939453,
				25
			],
			"min":[
				-24.95494842529297,
				-33.9569206237793,
				19.570341110229492
			],
			"type":"VEC3"
		},
		{
			"bufferView":47,
			"componentType":5126,
			"count":8,
			"type":"VEC3"
		},
		{
			"bufferView":48,
			"componentType":5126,
			"count":8,
			"max":[
				-24.95494842529297,
				-25.00000762939453,
				25
			],
			"min":[
				-27.45494842529297,
				-33.9569206237793,
				19.570341110229492
			],
			"type":"VEC3"
		},
		{
			"bufferView":49,
			"componentType":5126,
			"count":8,
			"type":"VEC3"
		},
		{
			"bufferView":50,
			"componentType":5126,
			"count":19,
			"max":[
				-24.954936981201172,
				-20.569171905517578,
				27.26343536376953
			],
			"min":[
				-27.454940795898438,
				-29.526086807250977,
				21.833776473999023
			],
			"type":"VEC3"
		},
		{
			"bufferView":51,
			"componentType":5126,
			"count":19,
			"type":"VEC3"
		},
		{
			"bufferView":52,
			"componentType":5126,
			"count":19,
			"max":[
				30.04505729675293,
				-25.00000762939453,
				25.00084686279297
			],
			"min":[
				27.54505729675293,
				-33.9569206237793,
				19.57118797302246
			],
			"type":"VEC3"
		},
		{
			"bufferView":53,
			"componentType":5126,
			"count":19,
			"type":"VEC3"
		},
		{
			"bufferView":54,
			"componentType":5126,
			"count":8,
			"max":[
				27.545055389404297,
				-25.00000762939453,
				25.00084686279297
			],
			"min":[
				25.045053482055664,
				-33.9569206237793,
				19.57118797302246
			],
			"type":"VEC3"
		},
		{
			"bufferView":55,
			"componentType":5126,
			"count":8,
			"type":"VEC3"
		},
		{
			"bufferView":56,
			"componentType":5126,
			"count":8,
			"max":[
				25.04505729675293,
				-25.00000762939453,
				25.00084686279297
			],
			"min":[
				22.54505729675293,
				-33.9569206237793,
				19.57118797302246
			],
			"type":"VEC3"
		},
		{
			"bufferView":57,
			"componentType":5126,
			"count":8,
			"type":"VEC3"
		},
		{
			"bufferView":58,
			"componentType":5126,
			"count":8,
			"max":[
				22.54505729675293,
				-25.00000762939453,
				25.00084686279297
			],
			"min":[
				20.04505729675293,
				-33.9569206237793,
				19.57118797302246
			],
			"type":"VEC3"
		},
		{
			"bufferView":59,
			"componentType":5126,
			"count":8,
			"type":"VEC3"
		},
		{
			"bufferView":60,
			"componentType":5126,
			"count":8,
			"max":[
				20.04505729675293,
				-25.00000762939453,
				25.00084686279297
			],
			"min":[
				17.54505729675293,
				-33.9569206237793,
				19.57118797302246
			],
			"type":"VEC3"
		},
		{
			"bufferView":61,
			"componentType":5126,
			"count":8,
			"type":"VEC3"
		},
		{
			"bufferView":62,
			"componentType":5126,
			"count":8,
			"max":[
				17.54505729675293,
				-25.00000762939453,
				25.00084686279297
			],
			"min":[
				15.045056343078613,
				-33.9569206237793,
				19.57118797302246
			],
			"type":"VEC3"
		},
		{
			"bufferView":63,
			"componentType":5126,
			"count":8,
			"type":"VEC3"
		},
		{
			"bufferView":64,
			"componentType":5126,
			"count":8,
			"max":[
				15.045058250427246,
				-25.00000762939453,
				25.00084686279297
			],
			"min":[
				12.54505729675293,
				-33.9569206237793,
				19.57118797302246
			],
			"type":"VEC3"
		},
		{
			"bufferView":65,
			"componentType":5126,
			"count":8,
			"type":"VEC3"
		},
		{
			"bufferView":66,
			"componentType":5126,
			"count":19,
			"max":[
				15.045062065124512,
				-20.569171905517578,
				27.264286041259766
			],
			"min":[
				12.545060157775879,
				-29.526086807250977,
				21.834627151489258
			],
			"type":"VEC3"
		},
		{
			"bufferView":67,
			"componentType":5126,
			"count":19,
			"type":"VEC3"
		},
		{
			"bufferView":68,
			"componentType":5126,
			"count":30,
			"max":[
				43.08810043334961,
				2.6772103309631348,
				9.003103256225586
			],
			"min":[
				36.247684478759766,
				-4.095875263214111,
				0.9968570470809937
			],
			"type":"VEC3"
		},
		{
			"bufferView":69,
			"componentType":5126,
			"count":30,
			"type":"VEC3"
		},
		{
			"bufferView":70,
			"componentType":5126,
			"count":30,
			"type":"VEC2"
		},
		{
			"bufferView":71,
			"componentType":5123,
			"count":36,
			"type":"SCALAR"
		},
		{
			"bufferView":72,
			"componentType":5126,
			"count":45,
			"max":[
				43.86105728149414,
				3.558424711227417,
				-4.76837158203125e-07
			],
			"min":[
				36.72627639770508,
				-3.558425188064575,
				-0.7317429780960083
			],
			"type":"VEC3"
		},
		{
			"bufferView":73,
			"componentType":5126,
			"count":45,
			"type":"VEC3"
		},
		{
			"bufferView":74,
			"componentType":5126,
			"count":45,
			"type":"VEC2"
		},
		{
			"bufferView":75,
			"componentType":5123,
			"count":60,
			"type":"SCALAR"
		},
		{
			"bufferView":76,
			"componentType":5126,
			"count":28,
			"max":[
				-12.350835800170898,
				18.85024642944336,
				30.5000057220459
			],
			"min":[
				-27.350839614868164,
				7.850241184234619,
				30.0000057220459
			],
			"type":"VEC3"
		},
		{
			"bufferView":77,
			"componentType":5126,
			"count":28,
			"type":"VEC3"
		},
		{
			"bufferView":78,
			"componentType":5126,
			"count":28,
			"type":"VEC2"
		},
		{
			"bufferView":79,
			"componentType":5123,
			"count":36,
			"type":"SCALAR"
		},
		{
			"bufferView":80,
			"componentType":5126,
			"count":28,
			"max":[
				-13.350835800170898,
				17.85024642944336,
				35.50000762939453
			],
			"min":[
				-26.350839614868164,
				8.850240707397461,
				30.5000057220459
			],
			"type":"VEC3"
		},
		{
			"bufferView":81,
			"componentType":5126,
			"count":28,
			"type":"VEC3"
		},
		{
			"bufferView":82,
			"componentType":5126,
			"count":28,
			"type":"VEC2"
		},
		{
			"bufferView":83,
			"componentType":5126,
			"count":28,
			"max":[
				-21.093891143798828,
				15.701075553894043,
				35.600006103515625
			],
			"min":[
				-25.093891143798828,
				13.70107364654541,
				35.50000762939453
			],
			"type":"VEC3"
		},
		{
			"bufferView":84,
			"componentType":5126,
			"count":28,
			"type":"VEC3"
		},
		{
			"bufferView":85,
			"componentType":5126,
			"count":28,
			"type":"VEC2"
		},
		{
			"bufferView":86,
			"componentType":5126,
			"count":28,
			"max":[
				-21.093891143798828,
				12.861016273498535,
				35.610008239746094
			],
			"min":[
				-25.093891143798828,
				10.861014366149902,
				35.50000762939453
			],
			"type":"VEC3"
		},
		{
			"bufferView":87,
			"componentType":5126,
			"count":28,
			"type":"VEC3"
		},
		{
			"bufferView":88,
			"componentType":5126,
			"count":28,
			"type":"VEC2"
		},
		{
			"bufferView":89,
			"componentType":5126,
			"count":458,
			"max":[
				-13.909506797790527,
				15.192754745483398,
				35.841243743896484
			],
			"min":[
				-18.50442123413086,
				10.597844123840332,
				35.761878967285156
			],
			"type":"VEC3"
		},
		{
			"bufferView":90,
			"componentType":5126,
			"count":458,
			"type":"VEC3"
		},
		{
			"bufferView":91,
			"componentType":5126,
			"count":458,
			"type":"VEC2"
		},
		{
			"bufferView":92,
			"componentType":5123,
			"count":852,
			"type":"SCALAR"
		},
		{
			"bufferView":93,
			"componentType":5126,
			"count":30,
			"max":[
				43.08810043334961,
				12.587105751037598,
				9.003103256225586
			],
			"min":[
				36.247684478759766,
				5.814020156860352,
				0.9968570470809937
			],
			"type":"VEC3"
		},
		{
			"bufferView":94,
			"componentType":5126,
			"count":30,
			"type":"VEC3"
		},
		{
			"bufferView":95,
			"componentType":5126,
			"count":30,
			"type":"VEC2"
		},
		{
			"bufferView":96,
			"componentType":5126,
			"count":45,
			"max":[
				43.86105728149414,
				13.468320846557617,
				-4.76837158203125e-07
			],
			"min":[
				36.72627639770508,
				6.351470947265625,
				-0.7317429780960083
			],
			"type":"VEC3"
		},
		{
			"bufferView":97,
			"componentType":5126,
			"count":45,
			"type":"VEC3"
		},
		{
			"bufferView":98,
			"componentType":5126,
			"count":45,
			"type":"VEC2"
		},
		{
			"bufferView":99,
			"componentType":5126,
			"count":314,
			"max":[
				-14.434914588928223,
				16.055988311767578,
				35.98684310913086
			],
			"min":[
				-20.052671432495117,
				10.438230514526367,
				35.50000762939453
			],
			"type":"VEC3"
		},
		{
			"bufferView":100,
			"componentType":5126,
			"count":314,
			"type":"VEC3"
		},
		{
			"bufferView":101,
			"componentType":5126,
			"count":314,
			"type":"VEC2"
		},
		{
			"bufferView":102,
			"componentType":5123,
			"count":720,
			"type":"SCALAR"
		}
	],
	"bufferViews":[
		{
			"buffer":0,
			"byteLength":2328,
			"byteOffset":0,
			"target":34962
		},
		{
			"buffer":0,
			"byteLength":2328,
			"byteOffset":2328,
			"target":34962
		},
		{
			"buffer":0,
			"byteLength":1552,
			"byteOffset":4656,
			"target":34962
		},
		{
			"buffer":0,
			"byteLength":792,
			"byteOffset":6208,
			"target":34963
		},
		{
			"buffer":0,
			"byteLength":4872,
			"byteOffset":7000,
			"target":34962
		},
		{
			"buffer":0,
			"byteLength":4872,
			"byteOffset":11872,
			"target":34962
		},
		{
			"buffer":0,
			"byteLength":3248,
			"byteOffset":16744,
			"target":34962
		},
		{
			"buffer":0,
			"byteLength":2136,
			"byteOffset":19992,
			"target":34963
		},
		{
			"buffer":0,
			"byteLength":2436,
			"byteOffset":22128,
			"target":34962
		},
		{
			"buffer":0,
			"byteLength":2436,
			"byteOffset":24564,
			"target":34962
		},
		{
			"buffer":0,
			"byteLength":1624,
			"byteOffset":27000,
			"target":34962
		},
		{
			"buffer":0,
			"byteLength":972,
			"byteOffset":28624,
			"target":34963
		},
		{
			"buffer":0,
			"byteLength":3192,
			"byteOffset":29596,
			"target":34962
		},
		{
			"buffer":0,
			"byteLength":3192,
			"byteOffset":32788,
			"target":34962
		},
		{
			"buffer":0,
			"byteLength":2128,
			"byteOffset":35980,
			"target":34962
		},
		{
			"buffer":0,
			"byteLength":1368,
			"byteOffset":38108,
			"target":34963
		},
		{
			"buffer":0,
			"byteLength":216,
			"byteOffset":39476,
			"target":34962
		},
		{
			"buffer":0,
			"byteLength":216,
			"byteOffset":39692,
			"target":34962
		},
		{
			"buffer":0,
			"byteLength":144,
			"byteOffset":39908,
			"target":34962
		},
		{
			"buffer":0,
			"byteLength":60,
			"byteOffset":40052,
			"target":34963
		},
		{
			"buffer":0,
			"byteLength":636,
			"byteOffset":40112,
			"target":34962
		},
		{
			"buffer":0,
			"byteLength":636,
			"byteOffset":40748,
			"target":34962
		},
		{
			"buffer":0,
			"byteLength":424,
			"byteOffset":41384,
			"target":34962
		},
		{
			"buffer":0,
			"byteLength":144,
			"byteOffset":41808,
			"target":34963
		},
		{
			"buffer":0,
			"byteLength":684,
			"byteOffset":41952,
			"target":34962
		},
		{
			"buffer":0,
			"byteLength":684,
			"byteOffset":42636,
			"target":34962
		},
		{
			"buffer":0,
			"byteLength":456,
			"byteOffset":43320,
			"target":34962
		},
		{
			"buffer":0,
			"byteLength":120,
			"byteOffset":43776,
			"target":34963
		},
		{
			"buffer":0,
			"byteLength":636,
			"byteOffset":43896,
			"target":34962
		},
		{
			"buffer":0,
			"byteLength":636,
			"byteOffset":44532,
			"target":34962
		},
		{
			"buffer":0,
			"byteLength":424,
			"byteOffset":45168,
			"target":34962
		},
		{
			"buffer":0,
			"byteLength":684,
			"byteOffset":45592,
			"target":34962
		},
		{
			"buffer":0,
			"byteLength":684,
			"byteOffset":46276,
			"target":34962
		},
		{
			"buffer":0,
			"byteLength":456,
			"byteOffset":46960,
			"target":34962
		},
		{
			"buffer":0,
			"byteLength":228,
			"byteOffset":47416,
			"target":34962
		},
		{
			"buffer":0,
			"byteLength":228,
			"byteOffset":47644,
			"target":34962
		},
		{
			"buffer":0,
			"byteLength":42,
			"byteOffset":47872,
			"target":34963
		},
		{
			"buffer":0,
			"byteLength":96,
			"byteOffset":47916,
			"target":34962
		},
		{
			"buffer":0,
			"byteLength":96,
			"byteOffset":48012,
			"target":34962
		},
		{
			"buffer":0,
			"byteLength":24,
			"byteOffset":48108,
			"target":34963
		},
		{
			"buffer":0,
			"byteLength":96,
			"byteOffset":48132,
			"target":34962
		},
		{
			"buffer":0,
			"byteLength":96,
			"byteOffset":48228,
			"target":34962
		},
		{
			"buffer":0,
			"byteLength":96,
			"byteOffset":48324,
			"target":34962
		},
		{
			"buffer":0,
			"byteLength":96,
			"byteOffset":48420,
			"target":34962
		},
		{
			"buffer":0,
			"byteLength":96,
			"byteOffset":48516,
			"target":34962
		},
		{
			"buffer":0,
			"byteLength":96,
			"byteOffset":48612,
			"target":34962
		},
		{
			"buffer":0,
			"byteLength":96,
			"byteOffset":48708,
			"target":34962
		},
		{
			"buffer":0,
			"byteLength":96,
			"byteOffset":48804,
			"target":34962
		},
		{
			"buffer":0,
			"byteLength":96,
			"byteOffset":48900,
			"target":34962
		},
		{
			"buffer":0,
			"byteLength":96,
			"byteOffset":48996,
			"target":34962
		},
		{
			"buffer":0,
			"byteLength":228,
			"byteOffset":49092,
			"target":34962
		},
		{
			"buffer":0,
			"byteLength":228,
			"byteOffset":49320,
			"target":34962
		},
		{
			"buffer":0,
			"byteLength":228,
			"byteOffset":49548,
			"target":34962
		},
		{
			"buffer":0,
			"byteLength":228,
			"byteOffset":49776,
			"target":34962
		},
		{
			"buffer":0,
			"byteLength":96,
			"byteOffset":50004,
			"target":34962
		},
		{
			"buffer":0,
			"byteLength":96,
			"byteOffset":50100,
			"target":34962
		},
		{
			"buffer":0,
			"byteLength":96,
			"byteOffset":50196,
			"target":34962
		},
		{
			"buffer":0,
			"byteLength":96,
			"byteOffset":50292,
			"target":34962
		},
		{
			"buffer":0,
			"byteLength":96,
			"byteOffset":50388,
			"target":34962
		},
		{
			"buffer":0,
			"byteLength":96,
			"byteOffset":50484,
			"target":34962
		},
		{
			"buffer":0,
			"byteLength":96,
			"byteOffset":50580,
			"target":34962
		},
		{
			"buffer":0,
			"byteLength":96,
			"byteOffset":50676,
			"target":34962
		},
		{
			"buffer":0,
			"byteLength":96,
			"byteOffset":50772,
			"target":34962
		},
		{
			"buffer":0,
			"byteLength":96,
			"byteOffset":50868,
			"target":34962
		},
		{
			"buffer":0,
			"byteLength":96,
			"byteOffset":50964,
			"target":34962
		},
		{
			"buffer":0,
			"byteLength":96,
			"byteOffset":51060,
			"target":34962
		},
		{
			"buffer":0,
			"byteLength":228,
			"byteOffset":51156,
			"target":34962
		},
		{
			"buffer":0,
			"byteLength":228,
			"byteOffset":51384,
			"target":34962
		},
		{
			"buffer":0,
			"byteLength":360,
			"byteOffset":51612,
			"target":34962
		},
		{
			"buffer":0,
			"byteLength":360,
			"byteOffset":51972,
			"target":34962
		},
		{
			"buffer":0,
			"byteLength":240,
			"byteOffset":52332,
			"target":34962
		},
		{
			"buffer":0,
			"byteLength":72,
			"byteOffset":52572,
			"target":34963
		},
		{
			"buffer":0,
			"byteLength":540,
			"byteOffset":52644,
			"target":34962
		},
		{
			"buffer":0,
			"byteLength":540,
			"byteOffset":53184,
			"target":34962
		},
		{
			"buffer":0,
			"byteLength":360,
			"byteOffset":53724,
			"target":34962
		},
		{
			"buffer":0,
			"byteLength":120,
			"byteOffset":54084,
			"target":34963
		},
		{
			"buffer":0,
			"byteLength":336,
			"byteOffset":54204,
			"target":34962
		},
		{
			"buffer":0,
			"byteLength":336,
			"byteOffset":54540,
			"target":34962
		},
		{
			"buffer":0,
			"byteLength":224,
			"byteOffset":54876,
			"target":34962
		},
		{
			"buffer":0,
			"byteLength":72,
			"byteOffset":55100,
			"target":34963
		},
		{
			"buffer":0,
			"byteLength":336,
			"byteOffset":55172,
			"target":34962
		},
		{
			"buffer":0,
			"byteLength":336,
			"byteOffset":55508,
			"target":34962
		},
		{
			"buffer":0,
			"byteLength":224,
			"byteOffset":55844,
			"target":34962
		},
		{
			"buffer":0,
			"byteLength":336,
			"byteOffset":56068,
			"target":34962
		},
		{
			"buffer":0,
			"byteLength":336,
			"byteOffset":56404,
			"target":34962
		},
		{
			"buffer":0,
			"byteLength":224,
			"byteOffset":56740,
			"target":34962
		},
		{
			"buffer":0,
			"byteLength":336,
			"byteOffset":56964,
			"target":34962
		},
		{
			"buffer":0,
			"byteLength":336,
			"byteOffset":57300,
			"target":34962
		},
		{
			"buffer":0,
			"byteLength":224,
			"byteOffset":57636,
			"target":34962
		},
		{
			"buffer":0,
			"byteLength":5496,
			"byteOffset":57860,
			"target":34962
		},
		{
			"buffer":0,
			"byteLength":5496,
			"byteOffset":63356,
			"target":34962
		},
		{
			"buffer":0,
			"byteLength":3664,
			"byteOffset":68852,
			"target":34962
		},
		{
			"buffer":0,
			"byteLength":1704,
			"byteOffset":72516,
			"target":34963
		},
		{
			"buffer":0,
			"byteLength":360,
			"byteOffset":74220,
			"target":34962
		},
		{
			"buffer":0,
			"byteLength":360,
			"byteOffset":74580,
			"target":34962
		},
		{
			"buffer":0,
			"byteLength":240,
			"byteOffset":74940,
			"target":34962
		},
		{
			"buffer":0,
			"byteLength":540,
			"byteOffset":75180,
			"target":34962
		},
		{
			"buffer":0,
			"byteLength":540,
			"byteOffset":75720,
			"target":34962
		},
		{
			"buffer":0,
			"byteLength":360,
			"byteOffset":76260,
			"target":34962
		},
		{
			"buffer":0,
			"byteLength":3768,
			"byteOffset":76620,
			"target":34962
		},
		{
			"buffer":0,
			"byteLength":3768,
			"byteOffset":80388,
			"target":34962
		},
		{
			"buffer":0,
			"byteLength":2512,
			"byteOffset":84156,
			"target":34962
		},
		{
			"buffer":0,
			"byteLength":1440,
			"byteOffset":86668,
			"target":34963
		}
	],
	"buffers":[
		{
			"byteLength":88108,
			"uri":"scene.bin"
		}
	]
}
